<mxfile host="app.diagrams.net" modified="2021-03-12T10:21:54.722Z" agent="5.0 (Windows NT 10.0; Win64; x64) AppleWebKit/537.36 (KHTML, like Gecko) Chrome/88.0.4324.190 Safari/537.36" etag="LU13yx3e9_veByqPAjGb" version="14.4.2" type="github">
  <diagram id="CVZrxNIoR2vpYf-RkMbT" name="第 1 页">
    <mxGraphModel dx="1422" dy="744" grid="1" gridSize="10" guides="1" tooltips="1" connect="1" arrows="1" fold="1" page="1" pageScale="1" pageWidth="827" pageHeight="1169" math="0" shadow="0">
      <root>
        <mxCell id="0" />
        <mxCell id="1" parent="0" />
        <mxCell id="QpBuJAGZLtyMLjAA3POx-2" value="&lt;font style=&quot;font-size: 14px&quot;&gt;训练轮次 (1e4)&lt;/font&gt;" style="text;html=1;resizable=0;autosize=1;align=center;verticalAlign=middle;points=[];fillColor=none;strokeColor=none;rounded=0;" vertex="1" parent="1">
          <mxGeometry x="396.43" y="530" width="110" height="20" as="geometry" />
        </mxCell>
        <mxCell id="QpBuJAGZLtyMLjAA3POx-3" value="&lt;font style=&quot;font-size: 14px&quot;&gt;测试误差 (%)&lt;/font&gt;" style="text;html=1;resizable=0;autosize=1;align=center;verticalAlign=middle;points=[];fillColor=none;strokeColor=none;rounded=0;rotation=270;" vertex="1" parent="1">
          <mxGeometry x="175" y="370" width="100" height="20" as="geometry" />
        </mxCell>
        <mxCell id="QpBuJAGZLtyMLjAA3POx-4" value="" style="shape=image;imageAspect=0;aspect=fixed;verticalLabelPosition=bottom;verticalAlign=top;image=data:image/jpeg,/9j/4AAQSkZJRgABAQEAYABgAAD/4SdeRXhpZgAATU0AKgAAAAgACAALAAIAAAAmAAAIegESAAMAAAABAAEAAAExAAIAAAAmAAAIoAEyAAIAAAAUAAAIxgE7AAIAAAAHAAAI2odpAAQAAAABAAAI4pydAAEAAAAOAAARZuocAAcAAAgMAAAAbgAAEXQc6gAAAAgAAAAAAAAAAAAAAAAAAAAAAAAAAAAAAAAAAAAAAAAAAAAAAAAAAAAAAAAAAAAAAAAAAAAAAAAAAAAAAAAAAAAAAAAAAAAAAAAAAAAAAAAAAAAAAAAAAAAAAAAAAAAAAAAAAAAAAAAAAAAAAAAAAAAAAAAAAAAAAAAAAAAAAAAAAAAAAAAAAAAAAAAAAAAAAAAAAAAAAAAAAAAAAAAAAAAAAAAAAAAAAAAAAAAAAAAAAAAAAAAAAAAAAAAAAAAAAAAAAAAAAAAAAAAAAAAAAAAAAAAAAAAAAAAAAAAAAAAAAAAAAAAAAAAAAAAAAAAAAAAAAAAAAAAAAAAAAAAAAAAAAAAAAAAAAAAAAAAAAAAAAAAAAAAAAAAAAAAAAAAAAAAAAAAAAAAAAAAAAAAAAAAAAAAAAAAAAAAAAAAAAAAAAAAAAAAAAAAAAAAAAAAAAAAAAAAAAAAAAAAAAAAAAAAAAAAAAAAAAAAAAAAAAAAAAAAAAAAAAAAAAAAAAAAAAAAAAAAAAAAAAAAAAAAAAAAAAAAAAAAAAAAAAAAAAAAAAAAAAAAAAAAAAAAAAAAAAAAAAAAAAAAAAAAAAAAAAAAAAAAAAAAAAAAAAAAAAAAAAAAAAAAAAAAAAAAAAAAAAAAAAAAAAAAAAAAAAAAAAAAAAAAAAAAAAAAAAAAAAAAAAAAAAAAAAAAAAAAAAAAAAAAAAAAAAAAAAAAAAAAAAAAAAAAAAAAAAAAAAAAAAAAAAAAAAAAAAAAAAAAAAAAAAAAAAAAAAAAAAAAAAAAAAAAAAAAAAAAAAAAAAAAAAAAAAAAAAAAAAAAAAAAAAAAAAAAAAAAAAAAAAAAAAAAAAAAAAAAAAAAAAAAAAAAAAAAAAAAAAAAAAAAAAAAAAAAAAAAAAAAAAAAAAAAAAAAAAAAAAAAAAAAAAAAAAAAAAAAAAAAAAAAAAAAAAAAAAAAAAAAAAAAAAAAAAAAAAAAAAAAAAAAAAAAAAAAAAAAAAAAAAAAAAAAAAAAAAAAAAAAAAAAAAAAAAAAAAAAAAAAAAAAAAAAAAAAAAAAAAAAAAAAAAAAAAAAAAAAAAAAAAAAAAAAAAAAAAAAAAAAAAAAAAAAAAAAAAAAAAAAAAAAAAAAAAAAAAAAAAAAAAAAAAAAAAAAAAAAAAAAAAAAAAAAAAAAAAAAAAAAAAAAAAAAAAAAAAAAAAAAAAAAAAAAAAAAAAAAAAAAAAAAAAAAAAAAAAAAAAAAAAAAAAAAAAAAAAAAAAAAAAAAAAAAAAAAAAAAAAAAAAAAAAAAAAAAAAAAAAAAAAAAAAAAAAAAAAAAAAAAAAAAAAAAAAAAAAAAAAAAAAAAAAAAAAAAAAAAAAAAAAAAAAAAAAAAAAAAAAAAAAAAAAAAAAAAAAAAAAAAAAAAAAAAAAAAAAAAAAAAAAAAAAAAAAAAAAAAAAAAAAAAAAAAAAAAAAAAAAAAAAAAAAAAAAAAAAAAAAAAAAAAAAAAAAAAAAAAAAAAAAAAAAAAAAAAAAAAAAAAAAAAAAAAAAAAAAAAAAAAAAAAAAAAAAAAAAAAAAAAAAAAAAAAAAAAAAAAAAAAAAAAAAAAAAAAAAAAAAAAAAAAAAAAAAAAAAAAAAAAAAAAAAAAAAAAAAAAAAAAAAAAAAAAAAAAAAAAAAAAAAAAAAAAAAAAAAAAAAAAAAAAAAAAAAAAAAAAAAAAAAAAAAAAAAAAAAAAAAAAAAAAAAAAAAAAAAAAAAAAAAAAAAAAAAAAAAAAAAAAAAAAAAAAAAAAAAAAAAAAAAAAAAAAAAAAAAAAAAAAAAAAAAAAAAAAAAAAAAAAAAAAAAAAAAAAAAAAAAAAAAAAAAAAAAAAAAAAAAAAAAAAAAAAAAAAAAAAAAAAAAAAAAAAAAAAAAAAAAAAAAAAAAAAAAAAAAAAAAAAAAAAAAAAAAAAAAAAAAAAAAAAAAAAAAAAAAAAAAAAAAAAAAAAAAAAAAAAAAAAAAAAAAAAAAAAAAAAAAAAAAAAAAAAAAAAAAAAAAAAAAAAAAAAAAAAAAAAAAAAAAAAAAAAAAAAAAAAAAAAAAAAAAAAAAAAAAAAAAAAAAAAAAAAAAAAAAAAAAAAAAAAAAAAAAAAAAAAAAAAAAAAAAAAAAAAAAAAAAAAAAAAAAAAAAAAAAAAAAAAAAAAAAAAAAAAAAAAAAAAAAAAAAAAAAAAAAAAAAAAAAAAAAAAAAAAAAAAAAAAAAAAAAAAAAAAAAAAAAAAAAAAAAAAAAAAAAAAAAAAAAAAAAAAAAAAAAAAAAAAAAAAAAAAAAAAAAAAAAAAAAAAAAAAAAAAAAAAAAAAAAAAAAAAAAAAAAAAAAAAAAAAAAAAAAAAAAAAAAAAAAAAAAAAAAAAAAAAAAAAAAAAAAAAAAAAAAAAAAAAAAAAAAAAAAAAAAAAAAAAAAAAAAAAAAAAAAAAAAAAAAAAAAAAAAAAAAAAAAAAAAAAAAAAAAAAAAAAAAAAAAAAAAAAAAAAAAAAAAAAAAAAAAAAAAAAAAAAAAAAAAAAAAAAAAAAAAAAAAAAAAAAAAAAAAAAAAAAAAAAAAAAAAAAAAAAAAAAAAAAAAAAAAAAAAAAAAAAAAAAAAAAAAAAAAAAAAAAAAAAAAAAAAAAAAAAAAAAAAAAAAAAAAAAAAAAAAAAAAAAAAAAAAAAAAAAAAAAAAAAAAAAAAAAAAAAAAAAAAAAAAAAAAAAAAAAAAAAAAAAAAAAAAAAAAAAAAAAAAFdpbmRvd3MgUGhvdG8gRWRpdG9yIDEwLjAuMTAwMTEuMTYzODQAV2luZG93cyBQaG90byBFZGl0b3IgMTAuMC4xMDAxMS4xNjM4NAAyMDIxOjAzOjEyIDE4OjE2OjQwAHpqMTk5NgAAAAaQAwACAAAAFAAAETyQBAACAAAAFAAAEVCSkQACAAAAAzExAACSkgACAAAAAzExAACgAQADAAAAAQABAADqHAAHAAAIDAAACTAAAAAAHOoAAAAIAAAAAAAAAAAAAAAAAAAAAAAAAAAAAAAAAAAAAAAAAAAAAAAAAAAAAAAAAAAAAAAAAAAAAAAAAAAAAAAAAAAAAAAAAAAAAAAAAAAAAAAAAAAAAAAAAAAAAAAAAAAAAAAAAAAAAAAAAAAAAAAAAAAAAAAAAAAAAAAAAAAAAAAAAAAAAAAAAAAAAAAAAAAAAAAAAAAAAAAAAAAAAAAAAAAAAAAAAAAAAAAAAAAAAAAAAAAAAAAAAAAAAAAAAAAAAAAAAAAAAAAAAAAAAAAAAAAAAAAAAAAAAAAAAAAAAAAAAAAAAAAAAAAAAAAAAAAAAAAAAAAAAAAAAAAAAAAAAAAAAAAAAAAAAAAAAAAAAAAAAAAAAAAAAAAAAAAAAAAAAAAAAAAAAAAAAAAAAAAAAAAAAAAAAAAAAAAAAAAAAAAAAAAAAAAAAAAAAAAAAAAAAAAAAAAAAAAAAAAAAAAAAAAAAAAAAAAAAAAAAAAAAAAAAAAAAAAAAAAAAAAAAAAAAAAAAAAAAAAAAAAAAAAAAAAAAAAAAAAAAAAAAAAAAAAAAAAAAAAAAAAAAAAAAAAAAAAAAAAAAAAAAAAAAAAAAAAAAAAAAAAAAAAAAAAAAAAAAAAAAAAAAAAAAAAAAAAAAAAAAAAAAAAAAAAAAAAAAAAAAAAAAAAAAAAAAAAAAAAAAAAAAAAAAAAAAAAAAAAAAAAAAAAAAAAAAAAAAAAAAAAAAAAAAAAAAAAAAAAAAAAAAAAAAAAAAAAAAAAAAAAAAAAAAAAAAAAAAAAAAAAAAAAAAAAAAAAAAAAAAAAAAAAAAAAAAAAAAAAAAAAAAAAAAAAAAAAAAAAAAAAAAAAAAAAAAAAAAAAAAAAAAAAAAAAAAAAAAAAAAAAAAAAAAAAAAAAAAAAAAAAAAAAAAAAAAAAAAAAAAAAAAAAAAAAAAAAAAAAAAAAAAAAAAAAAAAAAAAAAAAAAAAAAAAAAAAAAAAAAAAAAAAAAAAAAAAAAAAAAAAAAAAAAAAAAAAAAAAAAAAAAAAAAAAAAAAAAAAAAAAAAAAAAAAAAAAAAAAAAAAAAAAAAAAAAAAAAAAAAAAAAAAAAAAAAAAAAAAAAAAAAAAAAAAAAAAAAAAAAAAAAAAAAAAAAAAAAAAAAAAAAAAAAAAAAAAAAAAAAAAAAAAAAAAAAAAAAAAAAAAAAAAAAAAAAAAAAAAAAAAAAAAAAAAAAAAAAAAAAAAAAAAAAAAAAAAAAAAAAAAAAAAAAAAAAAAAAAAAAAAAAAAAAAAAAAAAAAAAAAAAAAAAAAAAAAAAAAAAAAAAAAAAAAAAAAAAAAAAAAAAAAAAAAAAAAAAAAAAAAAAAAAAAAAAAAAAAAAAAAAAAAAAAAAAAAAAAAAAAAAAAAAAAAAAAAAAAAAAAAAAAAAAAAAAAAAAAAAAAAAAAAAAAAAAAAAAAAAAAAAAAAAAAAAAAAAAAAAAAAAAAAAAAAAAAAAAAAAAAAAAAAAAAAAAAAAAAAAAAAAAAAAAAAAAAAAAAAAAAAAAAAAAAAAAAAAAAAAAAAAAAAAAAAAAAAAAAAAAAAAAAAAAAAAAAAAAAAAAAAAAAAAAAAAAAAAAAAAAAAAAAAAAAAAAAAAAAAAAAAAAAAAAAAAAAAAAAAAAAAAAAAAAAAAAAAAAAAAAAAAAAAAAAAAAAAAAAAAAAAAAAAAAAAAAAAAAAAAAAAAAAAAAAAAAAAAAAAAAAAAAAAAAAAAAAAAAAAAAAAAAAAAAAAAAAAAAAAAAAAAAAAAAAAAAAAAAAAAAAAAAAAAAAAAAAAAAAAAAAAAAAAAAAAAAAAAAAAAAAAAAAAAAAAAAAAAAAAAAAAAAAAAAAAAAAAAAAAAAAAAAAAAAAAAAAAAAAAAAAAAAAAAAAAAAAAAAAAAAAAAAAAAAAAAAAAAAAAAAAAAAAAAAAAAAAAAAAAAAAAAAAAAAAAAAAAAAAAAAAAAAAAAAAAAAAAAAAAAAAAAAAAAAAAAAAAAAAAAAAAAAAAAAAAAAAAAAAAAAAAAAAAAAAAAAAAAAAAAAAAAAAAAAAAAAAAAAAAAAAAAAAAAAAAAAAAAAAAAAAAAAAAAAAAAAAAAAAAAAAAAAAAAAAAAAAAAAAAAAAAAAAAAAAAAAAAAAAAAAAAAAAAAAAAAAAAAAAAAAAAAAAAAAAAAAAAAAAAAAAAAAAAAAAAAAAAAAAAAAAAAAAAAAAAAAAAAAAAAAAAAAAAAAAAAAAAAAAAAAAAAAAAAAAAAAAAAAAAAAAAAAAAAAAAAAAAAAAAAAAAAAAAAAAAAAAAAAAAAAAAAAAAAAAAAAAAAAAAAAAAAAAAAAAAAAAAAAAAAAAAAAAAAAAAAAAAAAAAAAAAAAAAAAAAAAAAAAAAAAAAAAAAAAAAAAAAAAAAAAAAAAAAAAAAAAAAAAAAAAAAAAAAAAAAAAAAAAAAAAAAAAAAAAAAAAAAAAAAAAAAAAAAAAAAAAAAAAAAAAAAAAAAAAAAAAAAAAAAAAAAAAAAAAAAAAAAAAAAAAAAAAAAAAAAAAAAAAAAAAAAAAAAAAAAAAAAAAAAAAAAAAAAAAAAAAAAAAAAAAAAAAAAAAAAAAAAAAAAAAAAAAAAAAAAAAAAAAAAAAAAAAAAAAAAAAAAAAAAAAAAAAAAAAAAAAAAAAAAAAAAAAAAAAAAAAAAAAAAAAAAAAAAAAAAAAAAAAAAAAAAAAAAAAAAAAAAAAAAAAAAAAAAAAAAAAAAAAAAAAyMDIxOjAzOjEyIDE4OjEyOjQ4ADIwMjE6MDM6MTIgMTg6MTI6NDgAAAB6AGoAMQA5ADkANgAAAAAGAQMAAwAAAAEABgAAARoABQAAAAEAABHCARsABQAAAAEAABHKASgAAwAAAAEAAgAAAgEABAAAAAEAABHSAgIABAAAAAEAABWDAAAAAAAAAGAAAAABAAAAYAAAAAH/2P/bAEMACAYGBwYFCAcHBwkJCAoMFA0MCwsMGRITDxQdGh8eHRocHCAkLicgIiwjHBwoNyksMDE0NDQfJzk9ODI8LjM0Mv/bAEMBCQkJDAsMGA0NGDIhHCEyMjIyMjIyMjIyMjIyMjIyMjIyMjIyMjIyMjIyMjIyMjIyMjIyMjIyMjIyMjIyMjIyMv/AABEIAKUBAAMBIQACEQEDEQH/xAAfAAABBQEBAQEBAQAAAAAAAAAAAQIDBAUGBwgJCgv/xAC1EAACAQMDAgQDBQUEBAAAAX0BAgMABBEFEiExQQYTUWEHInEUMoGRoQgjQrHBFVLR8CQzYnKCCQoWFxgZGiUmJygpKjQ1Njc4OTpDREVGR0hJSlNUVVZXWFlaY2RlZmdoaWpzdHV2d3h5eoOEhYaHiImKkpOUlZaXmJmaoqOkpaanqKmqsrO0tba3uLm6wsPExcbHyMnK0tPU1dbX2Nna4eLj5OXm5+jp6vHy8/T19vf4+fr/xAAfAQADAQEBAQEBAQEBAAAAAAAAAQIDBAUGBwgJCgv/xAC1EQACAQIEBAMEBwUEBAABAncAAQIDEQQFITEGEkFRB2FxEyIygQgUQpGhscEJIzNS8BVictEKFiQ04SXxFxgZGiYnKCkqNTY3ODk6Q0RFRkdISUpTVFVWV1hZWmNkZWZnaGlqc3R1dnd4eXqCg4SFhoeIiYqSk5SVlpeYmZqio6Slpqeoqaqys7S1tre4ubrCw8TFxsfIycrS09TV1tfY2dri4+Tl5ufo6ery8/T19vf4+fr/2gAMAwEAAhEDEQA/APYG8VWsN59kubW5gmDlSrhThQYhvyCRjM0fv144rWs7+01CN5LO6guERtjNDIHCsMEgkd+Rx70ATsyqpZiAB1Jpw6Urq9gCimAUUAFFACE461DDcwXKb4Jo5UzjdGwYfpSurj5W1dIWaeK2haaeVIo1GWd2CgfUmpVYOoZSCCMgjvRdXsHK7c1tBaKYgooAKKACigAooAKKACigAooAKKAMo+HtNaaOV4Gd4ySrPK7dWVz1PTcin6im+Fv+RS0f/rxh/wDQBQBfvIfPsp4e8kbKPxFR2NysmmW0zOBvRQcn+Lpj865pNRr3fVfk/wDgjWxcorpEFFABRQAVx+p6XZaBr2j6rYW0Vqstx9kuRAgVXWQEKWx6OF596zqJWv2OzBVJqbpJ6TTTXfR2+5hNYQeKfEepRXuZtO09Vt44dx2GZl3OxHQkBlAz05rR8H3TzeHIbed1a4smazmx/ejO3n3IAP41EPjv3udOIk3hvZfycv8A5Mm3+NjeFBNbnlADzS0AFFABRQAUUAFFABRQAUUAFFABWR4W/wCRS0f/AK8Yf/QBQBrEVyV00j2kthEdrWckszH2U5X/ANCH5V5WZ3UVbdpr8n+hcDrI2Dxqw6MMinV6kXdJkBRTAKKACsfxNp8mp+HL21hz55j3w4/56L8y/qBUzXNFo2w1T2daE30af4kPhPT7iw0CE3i7by5Z7m4G3GHkJYg/TOPwqrP4Z1Aanf3On67NYw3bCYwxwI2JQoXcSwJIOBkcfWs/ZycEk7M6/rdOGIqSlHmi+mvfTYSPxFqtlD9n1HQb6a8T5fMs0DxSnsQScqD79KoX7eIIr7SdT1C7FtG9/HD9gt2yio+R87fxtnHoBUOc5K1rWOilQw1Od7qfNdRXa63fmui+Z2460tdJ4wUUAFFABRQAUUAFFABRQAUUAFZHhb/kUtH/AOvGH/0AUAa9Uv7NgE15L8xa6UK4PQADHFY1qMalm+n+TX6jTsGkSGTSLUnqIwp+o4/pV2jDu9GD8l+QPcKK2EFFABSYoANtGOKADaK53xyCnhaa4QfPbSw3A/4BIp/kDUVPgZ04P/eIeqOhU5GadVnMFFABRQAUUAFFABRQAUUAFFABWR4W/wCRS0f/AK8Yf/QBQBr0hoAyILh9M823mt5mXzGaFo13BgTkLx0PPfFWbfUlktZ5pozC0BIkQtkrgZ/lXm0MV7O1GUWrJ69NNvvWpbV9SawvFv7RJ1QpnIZT1UjqKs13Uaiq04zXVEtWYUVoIKKACigArH8VwNc+E9WhQZZrSTaPU7SRUzV4tGuHfLVi/NfmW9IuxfaPY3Y/5b26SfmoP9au007q5NWPLNx7MKKZAUUAFFABRQAUUAFFABRQAVkeFv8AkUtH/wCvGH/0AUAa9FACYrI1DT55r9DF/qJ8LcjPZTkfnyK48ZRlVp2jvf8A4D/BsqLsxfOXS764MiyC2mxIGSMsFbo2cDvwa1IpkmjWSNgyOMqR3FGGmot0eqb+64S7js0tddyQopgFFABUc6CSB0IyGUjFJ7Di7NMwfA84m8GaUe6QCI+xQlf6V0Oamm7wRvi1bEVF5v8AMM0ZqznDNLQAmaM0AcLBr+ov8QZbHUL270y1UO1vZz2UflXaKpy6ThjyPvlSAQMcdateFvFsXiK6jmkuntjco0tlZNAyCWEHh97Lh2xgkIcKGAPPNCBl/wAUaheWEuiG0uDEtxqkVvMu1SHjYNkcjjoORiph4psPtUcGy53SmdYD5fEzQkiQL3yMHGQM44zRcLEsPiXTZ9Jg1RJT9imt2uRKR92MDJJHUdRx1zxVCTx7oMIu/NnkDWph8xVTecStsRhtzkFuPUHqBQC1Nywvk1CzS5SG4hVyRsuIjG4wSOVPI6flirVABWR4W/5FLR/+vGH/ANAFAGvRQAUlABistbPULaSSKzeBbZm3L5gJKZ6gAds81y4ilUk1Kla679mUmuofYb62YTW9008jf6xbg/K3uMfdqS0ubkXj2t55fmFRJGYwQCOhHPof51hCNfDzUW7wb673f/B/MNGi1dXUVpC0srYUcYHUnsB70yyvFvYfMVWRlJV0bqjDsa6fbxVb2XWwraXLORS10CCkNAHO3Xhdobp77Q7x9NunYtIijdBMc5O9PX3XB5pn9uazp2Bq+iSOg4a409vOUn12YDgfgax96m9FdfkelGVLGRtUly1F16S9ez89n17k0fjLRGmEU909m7DK/bIXgDfQuADUVz4shmuVtNBhTWLoDdIIJlEcS+rPyAT2HWj28baasSyyqp/vdILVy3X3rf0LOmeJLW+u3sbiOSx1CNdzWtzgMV/vKQcMvB5BpL7xhoOnXJt7jUY/MXlxGrSCP/eKg7fxxVe1ja70I/s+vKq6cFzdbrZrvd/1fQqy+MrW8Jg0CN9VuidoESlYk93kI2gfTJrQ0PWl1a1k82Jra8gfy7m2f70TgfqD1B7gilGrzSsth1sBKjS5pP3lvHsuj+/p6FR9JvNSubeTXGsmjtJJWiFuGG/erRjdu+78jsCATk85HSs608FAwaJaX8sc9po8EtvDtyGmR4/LG7+7hCc4JycHjFao4CaXwVZWlrp1rokMdpBbakl/IjOzbyoIIBJOCRj8qzj4d1HTb+z1vUb+1kTS57q5nmEDvNNE6vjpnBVSAFAI449KLhYfpnhi11LQdcS0nuorHVmkaz82Io1sr4ZmVWAIBky2DjIxU9z4d8RapoLWOqX+nPcCa3dHt4GRW8qVZCzZJO47MYGAMnrR1+4E+p2S8AZ696dQJbBWR4W/5FLR/wDrxh/9AFAzXooAKKACigAqpeWSXZjYvJHJGSVeM4IyMEVlWpKrDkY07DIdKtopVmKvLMvSSVy5/Wm3FlOty11ZSpHKy4dJFJV8dCcdDXO8JywtS+K97v8AUfNrqRDS5pQ0txeTC5PRoWKqnsB3H1qOLUL2TFnHEpvYziZ3U7FH973yOgrnaq4dpp3c/u5v0W49GSnUZ7I7dRiVVP3ZoQWUn0I6g09dU/exLJZ3MSytsR3UAZ7Z5yK0WNlB8lSLut7bLs/n/wAOLlXQ0KCK9EkintoLqMxzwRyof4ZFDD8jTbe0t7RNlvBHCpOSsaBR+lLlV72L9pPl5Lu3boQaho+nauiJqFlBcqhyolQNj6U+z02y023EFlaQ28Wc7IkCj9KXJHmvYv6xVdP2XM+XsWQiqMBQB6AVk6l4a03VLkXMsUkV2FwtzbyNHIPxB5/HNEoKSswo4ipRnzw/4f1Kf/CF6fO3/EyuL7UlUYRLy4LKvuAMc+55pB4OgA8r+1tZ+zDhYBeEKB6ZHzY/GsvYR7s7f7UqbckbdFbReaFHhGK1JOlapqWn56rHN5iMfUrIG5+mKQeEVucNquranftjlTOYU/75j20ex6Xduwv7SfxuEef+a36bXHf8INoP/Ptcf+Bk3/xVKvhQxDZBrutRRdkFyG2+wLKT+tP2EVtdfMP7Uqy0qxjP1X+VjT0zTf7Mt2iF3d3W5t2+6k3t06ZwOKvjpWqVlY4KlT2k3O1r9thayPC3/IpaP/14w/8AoApkGvRQAUUAFFABRQAUUAFJjmkwDGaz9ZBGmtMoy0DLKP8AgJB/lmsMSr0Z27DW5oDkZpa3TuriCimAUUAFFAHPW/jCwn16LSWtr6CS4DG1nmtykVztGW2N3wOeQMjkZFWNP8S2Go3MMMPmKtyjvayuAFuFQ4YpznjI6gZByMjJoWoMsaprMGkyWKTxyt9suVtYzGAQrsCRuyenB6ZrQzQAtFABRQBCLqAkDzo+WKD5hyw4I+vtWd4W/wCRS0b/AK8Yf/QBQBr0UAFFABRQAUUAFFABRQAVFcxLPbSQt0kQqfxFTNXi0C3K2kTefpds5OW8sBvqOD+tXqzw8uajF+S/Ib3CkzWogzSAg9OaLgLRQBwc2taP4j8RRRR3M/2i2E0Nmi20ozK6lWlLbduAuQOe5PpWdpNpfy23gm2soVS90aymW5WbIWKRYPKCvjnBc59SASKEv6+8GaOs/wBtm20E68NP+1DXIWH2AuUEYVuTv5ByTnt0rLtL77X4m0nY11HHc3l9bXkbiQyj75USsMAcgFBj5RjBI5phf+vvLlv/AMJBb+GdYsvKnkvtFiltraZWy93lQyOD/wA9PLIz6s1Zd9cWl34evdQ0fVNYPn3Fks0bK0KxN56b8DaDvKlt2MjABPrRuwS6Hp2n2MGn2UdtbeZ5K5K+ZK0h5JJ+ZiSeT61boEtjk5fClzNfJcm5RNs0zYXP3XnilyP9oeVj/gWc8Vp+E0MfhHSBvZs2cJG45x8goGbNFABRQAUUAFFABRQAUUAFJQwKMmlx+cZraWS1kY5YxEYY+6ng037Fe4/5Cku7/rkmPyx/WuCWDkn+7qOK7Fcy6jTY3s5CXV7mEf8APFTGz/U5/lS/2PAc75rqReyvcPgfrUrBSqa15tvy0X3BzW2Qv9i2WMbZcdx574P600aU0DH7DdPbRn70YAcfUZ6Gj+z4Q1pPll3HzN7i/wBlbmzNfXkv+z5u0f8AjoFC2uoW/wAlvdxvH/D9oQsw9sgjP40/qlWHvU6jb89UK66oNmryfK0lnEB/EqsxP4HGKPK1Y9Z7NcdMRMd3154o5ca9bxQe6Lv1XGDb2eR1Pmtz/wCO1DeQ6peWc1qYoohNGyGWC6ZHTIxlSFyD6GjnxtvgX3j90g0y2vNMso7KGxaTZ1nuLwyFz3ZmILEmrnn6ozbRYQKR/G0+VP5DNHtsW9qa+8Vo9y3bm4KH7SkavngRsWGPxAqeu2m5OK59yQrI8Lf8ilo//XjD/wCgCrA16KACigAooAKKACigAooAKKACigAooAKKACigAooAKKADFFABRQAVkeFv+RS0f/rxh/8AQBQBr0UAFFABRQAUUAFFABRQAUUAFFABRQAUUAFFABRQAUUAFFABRQAVkeFv+RS0f/rxh/8AQBQBr0UAFFABRQAUUAFFABRQAUUAFFABRQAUUAFFABRQAUUAFFABRQAVkeFv+RS0f/rxh/8AQBQBr0UAFFABRQAUUAFFABRQAUUAFFABRQAUUAFFABRQAUUAFFABRQAVkeFv+RS0f/rxh/8AQBQBr0UAFFABRQAUUAFFABRQAUUAFFABRQAUUAFFABRQAUUAFFABRQAVkeFv+RS0f/rxh/8AQBQBr0UAFFABRQAUUAFFABRQAUUAFFABRQAUUAFFABRQAUUAFFABRQAVkeFv+RS0f/rxh/8AQBQBr0UAFFABRQAUUAFFABRQAUUAFFABRQAUUAFFABRQAUUAFFABRQAVkeFv+RS0f/rxh/8AQBQBr0UAFFABRQAUUAFFABRQAUUAFFABRQAUUAFFABRQAUUAFFABRQBz2vapqNjqdjDaRboZULOdudziWFQue3yPIf8AgOegNV/D3/CQ2WgWNk1hpk5toUh85NRbEm1QN3+p4zjp2oA0/tOv/wDQK0//AMGD/wDxmj7Tr/8A0CtP/wDBg/8A8ZoAPtOv/wDQK0//AMGD/wDxmoZrvxD50AWw05PnO5TftlxtPA/deuD+FAEv2nX/APoFaf8A+DB//jNL9p1//oFaf/4MH/8AjNAB9p1//oFaf/4MH/8AjNH2rX/+gVp//gwf/wCM0AVbG+1+SGTNrplyyyuCyagflG4kKcRdQCB+Gatfadf/AOgVp/8A4MH/APjNAB9p1/8A6BWn/wDgwf8A+M0fadf/AOgVp/8A4MH/APjNAFTULvxEIY1jtdMtWaaP53v2O4bwWQZi6sAV/HParf2rX/8AoFaf/wCDB/8A4zQAfadf/wCgVp//AIMH/wDjNH2nX/8AoFaf/wCDB/8A4zQAfadf/wCgVp//AIMH/wDjVV4bvxF9puEex018kMkYv2yi4xz+67kN/kUAWPtOv/8AQK0//wAGD/8Axmj7Tr//AECtP/8ABg//AMZoAPtOv/8AQK0//wAGD/8Axmq97deIvsU4jsdOt5PLbbMb9iIzjhiDDjjrzQBMl7rkiK8emac6MMqy6ixBHqP3VO+06/8A9ArT/wDwYP8A/GaAD7Tr/wD0CtP/APBg/wD8Zo+06/8A9ArT/wDwYP8A/GaAKpuvEYvwTZ6cI2jwsH29gS2eWz5OemOKtfadf/6BWn/+DB//AI1QBds3vJIiby3igk3cLFMZBj1yVX8sVZoAp6ra/bNIvbXzGj86B4969VypGR9KpeGX+0aSbvAX7TPLLsHRcsRj9OvvQBs0UAFZGrTeXq2iR7c77l+c9MRSf40AawpaACg9KAOQ8A6+niKz1K7SxW02XZjKK+4Haigdhj5Qox7V19ACdqWgDA8UXJSGzslBV764WBZRg+UfvBtpBDDI5HGa36ACigA7Vzmn2Mlv421S4e5Mvn2kJ2lMbQHlwM+gH+c0B0OjooAKxPFl3FY+HbmeaB548ojRpM0RIZ1Xhl5GM549KANHT0aPT7ZXlaVxEoZ3PLHA5PuatUAFFAHNG3lXxz5qXMi7rdGdOqtGA67MdB85D7uvUdDXS0AFFAH/2QD/4TNhaHR0cDovL25zLmFkb2JlLmNvbS94YXAvMS4wLwA8P3hwYWNrZXQgYmVnaW49J++7vycgaWQ9J1c1TTBNcENlaGlIenJlU3pOVGN6a2M5ZCc/Pg0KPHg6eG1wbWV0YSB4bWxuczp4PSJhZG9iZTpuczptZXRhLyI+PHJkZjpSREYgeG1sbnM6cmRmPSJodHRwOi8vd3d3LnczLm9yZy8xOTk5LzAyLzIyLXJkZi1zeW50YXgtbnMjIj48cmRmOkRlc2NyaXB0aW9uIHJkZjphYm91dD0idXVpZDpmYWY1YmRkNS1iYTNkLTExZGEtYWQzMS1kMzNkNzUxODJmMWIiIHhtbG5zOmRjPSJodHRwOi8vcHVybC5vcmcvZGMvZWxlbWVudHMvMS4xLyIvPjxyZGY6RGVzY3JpcHRpb24gcmRmOmFib3V0PSJ1dWlkOmZhZjViZGQ1LWJhM2QtMTFkYS1hZDMxLWQzM2Q3NTE4MmYxYiIgeG1sbnM6eG1wPSJodHRwOi8vbnMuYWRvYmUuY29tL3hhcC8xLjAvIj48eG1wOkNyZWF0ZURhdGU+MjAyMS0wMy0xMlQxODoxMjo0OC4xMTM8L3htcDpDcmVhdGVEYXRlPjx4bXA6Q3JlYXRvclRvb2w+V2luZG93cyBQaG90byBFZGl0b3IgMTAuMC4xMDAxMS4xNjM4NDwveG1wOkNyZWF0b3JUb29sPjwvcmRmOkRlc2NyaXB0aW9uPjxyZGY6RGVzY3JpcHRpb24gcmRmOmFib3V0PSJ1dWlkOmZhZjViZGQ1LWJhM2QtMTFkYS1hZDMxLWQzM2Q3NTE4MmYxYiIgeG1sbnM6ZGM9Imh0dHA6Ly9wdXJsLm9yZy9kYy9lbGVtZW50cy8xLjEvIj48ZGM6Y3JlYXRvcj48cmRmOlNlcSB4bWxuczpyZGY9Imh0dHA6Ly93d3cudzMub3JnLzE5OTkvMDIvMjItcmRmLXN5bnRheC1ucyMiPjxyZGY6bGk+emoxOTk2PC9yZGY6bGk+PC9yZGY6U2VxPg0KCQkJPC9kYzpjcmVhdG9yPjwvcmRmOkRlc2NyaXB0aW9uPjwvcmRmOlJERj48L3g6eG1wbWV0YT4NCiAgICAgICAgICAgICAgICAgICAgICAgICAgICAgICAgICAgICAgICAgICAgICAgICAgICAgICAgICAgICAgICAgICAgICAgICAgICAgICAgICAgICAgICAgICAgICAgICAgICAKICAgICAgICAgICAgICAgICAgICAgICAgICAgICAgICAgICAgICAgICAgICAgICAgICAgICAgICAgICAgICAgICAgICAgICAgICAgICAgICAgICAgICAgICAgICAgICAgICAgIAogICAgICAgICAgICAgICAgICAgICAgICAgICAgICAgICAgICAgICAgICAgICAgICAgICAgICAgICAgICAgICAgICAgICAgICAgICAgICAgICAgICAgICAgICAgICAgICAgICAgCiAgICAgICAgICAgICAgICAgICAgICAgICAgICAgICAgICAgICAgICAgICAgICAgICAgICAgICAgICAgICAgICAgICAgICAgICAgICAgICAgICAgICAgICAgICAgICAgICAgICAKICAgICAgICAgICAgICAgICAgICAgICAgICAgICAgICAgICAgICAgICAgICAgICAgICAgICAgICAgICAgICAgICAgICAgICAgICAgICAgICAgICAgICAgICAgICAgICAgICAgIAogICAgICAgICAgICAgICAgICAgICAgICAgICAgICAgICAgICAgICAgICAgICAgICAgICAgICAgICAgICAgICAgICAgICAgICAgICAgICAgICAgICAgICAgICAgICAgICAgICAgCiAgICAgICAgICAgICAgICAgICAgICAgICAgICAgICAgICAgICAgICAgICAgICAgICAgICAgICAgICAgICAgICAgICAgICAgICAgICAgICAgICAgICAgICAgICAgICAgICAgICAKICAgICAgICAgICAgICAgICAgICAgICAgICAgICAgICAgICAgICAgICAgICAgICAgICAgICAgICAgICAgICAgICAgICAgICAgICAgICAgICAgICAgICAgICAgICAgICAgICAgIAogICAgICAgICAgICAgICAgICAgICAgICAgICAgICAgICAgICAgICAgICAgICAgICAgICAgICAgICAgICAgICAgICAgICAgICAgICAgICAgICAgICAgICAgICAgICAgICAgICAgCiAgICAgICAgICAgICAgICAgICAgICAgICAgICAgICAgICAgICAgICAgICAgICAgICAgICAgICAgICAgICAgICAgICAgICAgICAgICAgICAgICAgICAgICAgICAgICAgICAgICAKICAgICAgICAgICAgICAgICAgICAgICAgICAgICAgICAgICAgICAgICAgICAgICAgICAgICAgICAgICAgICAgICAgICAgICAgICAgICAgICAgICAgICAgICAgICAgICAgICAgIAogICAgICAgICAgICAgICAgICAgICAgICAgICAgICAgICAgICAgICAgICAgICAgICAgICAgICAgICAgICAgICAgICAgICAgICAgICAgICAgICAgICAgICAgICAgICAgICAgICAgCiAgICAgICAgICAgICAgICAgICAgICAgICAgICAgICAgICAgICAgICAgICAgICAgICAgICAgICAgICAgICAgICAgICAgICAgICAgICAgICAgICAgICAgICAgICAgICAgICAgICAKICAgICAgICAgICAgICAgICAgICAgICAgICAgICAgICAgICAgICAgICAgICAgICAgICAgICAgICAgICAgICAgICAgICAgICAgICAgICAgICAgICAgICAgICAgICAgICAgICAgIAogICAgICAgICAgICAgICAgICAgICAgICAgICAgICAgICAgICAgICAgICAgICAgICAgICAgICAgICAgICAgICAgICAgICAgICAgICAgICAgICAgICAgICAgICAgICAgICAgICAgCiAgICAgICAgICAgICAgICAgICAgICAgICAgICAgICAgICAgICAgICAgICAgICAgICAgICAgICAgICAgICAgICAgICAgICAgICAgICAgICAgICAgICAgICAgICAgICAgICAgICAKICAgICAgICAgICAgICAgICAgICAgICAgICAgICAgICAgICAgICAgICAgICAgICAgICAgICAgICAgICAgICAgICAgICAgICAgICAgICAgICAgICAgICAgICAgICAgICAgICAgIAogICAgICAgICAgICAgICAgICAgICAgICAgICAgICAgICAgICAgICAgICAgICAgICAgICAgICAgICAgICAgICAgICAgICAgICAgICAgICAgICAgICAgICAgICAgICAgICAgICAgCiAgICAgICAgICAgICAgICAgICAgICAgICAgICAgICAgICAgICAgICAgICAgICAgICAgICAgICAgICAgICAgICAgICAgICAgICAgICAgICAgICAgICAgICAgICAgICAgICAgICAKICAgICAgICAgICAgICAgICAgICAgICAgICAgICAgICAgICAgICAgICAgICAgICAgICAgICAgICAgICAgICAgICAgICAgICAgICAgICAgICAgICAgICAgICAgICAgICAgICAgIAogICAgICAgICAgICAgICAgICAgICAgICAgICAgICAgICAgICAgICAgICAgICAgICAgICAgICAgICAgICAgICAgICAgICAgICAgICAgICAgICAgICAgICAgICAgICAgICAgICAgCiAgICAgICAgICAgICAgICAgICAgICAgICAgICAgICAgICAgICAgICAgICAgICAgICAgICAgICAgICAgICAgICAgICAgICAgICAgICAgICAgICAgICAgICAgICAgICAgICAgICAKICAgICAgICAgICAgICAgICAgICAgICAgICAgICAgICAgICAgICAgICAgICAgICAgICAgICAgICAgICAgICAgICAgICAgICAgICAgICAgICAgICAgICAgICAgICAgICAgICAgIAogICAgICAgICAgICAgICAgICAgICAgICAgICAgICAgICAgICAgICAgICAgICAgICAgICAgICAgICAgICAgICAgICAgICAgICAgICAgICAgICAgICAgICAgICAgICAgICAgICAgCiAgICAgICAgICAgICAgICAgICAgICAgICAgICAgICAgICAgICAgICAgICAgICAgICAgICAgICAgICAgICAgICAgICAgICAgICAgICAgICAgICAgICAgICAgICAgICAgICAgICAKICAgICAgICAgICAgICAgICAgICAgICAgICAgICAgICAgICAgICAgICAgICAgICAgICAgICAgICAgICAgICAgICAgICAgICAgICAgICAgICAgICAgICAgICAgICAgICAgICAgIAogICAgICAgICAgICAgICAgICAgICAgICAgICAgICAgICAgICAgICAgICAgICAgICAgICAgICAgICAgICAgICAgICAgICAgICAgICAgICAgICAgICAgICAgICAgICAgICAgICAgCiAgICAgICAgICAgICAgICAgICAgICAgICAgICAgICAgICAgICAgICAgICAgICAgICAgICAgICAgICAgICAgICAgICAgICAgICAgICAgICAgICAgICAgICAgICAgICAgICAgICAKICAgICAgICAgICAgICAgICAgICAgICAgICAgICAgICAgICAgICAgICAgICAgICAgICAgICAgICAgICAgICAgICAgICAgICAgICAgICAgICAgICAgICAgICAgICAgICAgICAgIAogICAgICAgICAgICAgICAgICAgICAgICAgICAgICAgICAgICAgICAgICAgICAgICAgICAgICAgICAgICAgICAgICAgICAgICAgICAgICAgICAgICAgICAgICAgICAgICAgICAgCiAgICAgICAgICAgICAgICAgICAgICAgICAgICAgICAgICAgICAgICAgICAgICAgICAgICAgICAgICAgICAgICAgICAgICAgICAgICAgICAgICAgICAgICAgICAgICAgICAgICAKICAgICAgICAgICAgICAgICAgICAgICAgICAgICAgICAgICAgICAgICAgICAgICAgICAgICAgICAgICAgICAgICAgICAgICAgICAgICAgICAgICAgICAgICAgICAgICAgICAgIAogICAgICAgICAgICAgICAgICAgICAgICAgICAgICAgICAgICAgICAgICAgICAgICAgICAgICAgICAgICAgICAgICAgICAgICAgICAgICAgICAgICAgICAgICAgICAgICAgICAgCiAgICAgICAgICAgICAgICAgICAgICAgICAgICAgICAgICAgICAgICAgICAgICAgICAgICAgICAgICAgICAgICAgICAgICAgICAgICAgICAgICAgICAgICAgICAgICAgICAgICAKICAgICAgICAgICAgICAgICAgICAgICAgICAgICAgICAgICAgICAgICAgICAgICAgICAgICAgICAgICAgICAgICAgICAgICAgICAgICAgICAgICAgICAgICAgICAgICAgICAgIAogICAgICAgICAgICAgICAgICAgICAgICAgICAgICAgICAgICAgICAgICAgICAgICAgICAgICAgICAgICAgICAgICAgICAgICAgICAgICAgICAgICAgICAgICAgICAgICAgICAgCiAgICAgICAgICAgICAgICAgICAgICAgICAgICAgICAgICAgICAgICAgICAgICAgICAgICAgICAgICAgICAgICAgICAgICAgICAgICAgICAgICAgICAgICAgICAgICAgICAgICAKICAgICAgICAgICAgICAgICAgICAgICAgICAgICAgICAgICAgICAgICAgICAgICAgICAgICAgICAgICAgICAgICAgICAgICAgICAgICAgICAgICAgICAgICAgICAgICAgICAgIAogICAgICAgICAgICAgICAgICAgICAgICAgICAgICAgICAgICAgICAgICAgICAgICAgICAgICAgICAgICAgICAgICAgICAgICAgICAgICAgICAgICAgICAgICAgICAgICAgICAgCiAgICAgICAgICAgICAgICAgICAgICAgICAgICAgICAgICAgICAgICAgICAgICAgICAgICAgICAgICAgICAgICAgICAgICAgICAgICAgICAgICAgICAgICAgICAgICAgICAgICAKICAgICAgICAgICAgICAgICAgICAgICAgICAgICAgICAgICAgICAgICAgICAgICAgICAgICAgICAgICAgICAgICAgICAgICAgICAgICAgICAgICAgICAgICAgICAgICAgICAgIAogICAgICAgICAgICAgICAgICAgICAgICAgICAgICAgICAgICAgICAgICAgICAgICAgICAgICAgICAgICAgICAgICAgICAgICAgICAgICAgICAgICAgICAgICAgICAgICAgICAgCiAgICAgICAgICAgICAgICAgICAgICAgICAgICAgICAgICAgICAgICAgICAgICAgICAgICAgICAgICAgICAgICAgICAgICAgICAgICAgICAgICAgICAgICAgICAgICAgICAgICAKICAgICAgICAgICAgICAgICAgICAgICAgICAgICAgICAgICAgICAgICAgICAgICAgICAgICAgICAgICAgICAgICAgICAgICAgICAgICAgICAgICAgICAgICAgICAgICAgICAgIAogICAgICAgICAgICAgICAgICAgICAgICAgICAgICAgICAgICAgICAgICAgICAgICAgICAgICAgICAgICAgICAgICAgICAgICAgICAgICAgICAgICAgICAgICAgICAgICAgICAgCiAgICAgICAgICAgICAgICAgICAgICAgICAgICAgICAgICAgICAgICAgICAgICAgICAgICAgICAgICAgICAgICAgICAgICAgICAgICAgICAgICAgICAgICAgICAgICAgICAgICAKICAgICAgICAgICAgICAgICAgICAgICAgICAgICAgICAgICAgICAgICAgICAgICAgICAgICAgICAgICAgICAgICAgICAgICAgICAgICAgICAgICAgICAgICAgICAgICAgICAgIAogICAgICAgICAgICAgICAgICAgICAgICAgICAgICAgICAgICAgICAgICAgICAgICAgICAgICAgICAgICAgICAgICAgICAgICAgICAgICAgICAgICAgICAgICAgICAgICAgICAgCiAgICAgICAgICAgICAgICAgICAgICAgICAgICAgICAgICAgICAgICAgICAgICAgICAgICAgICAgICAgICAgICAgICAgICAgICAgICAgICAgICAgICAgICAgICAgICAgICAgICAKICAgICAgICAgICAgICAgICAgICAgICAgICAgICAgICAgICAgICAgICAgICAgICAgICAgICAgICAgICAgICAgICAgICAgICAgICAgICAgICAgICAgICAgICAgICAgICAgICAgIAogICAgICAgICAgICAgICAgICAgICAgICAgICAgICAgICAgICAgICAgICAgICAgICAgICAgICAgICAgICAgICAgICAgICAgICAgICAgICAgICAgICAgICAgICAgICAgICAgICAgCiAgICAgICAgICAgICAgICAgICAgICAgICAgICAgICAgICAgICAgICAgICAgICAgICAgICAgICAgICAgICAgICAgICAgICAgICAgICAgICAgICAgICAgICAgICAgICAgICAgICAKICAgICAgICAgICAgICAgICAgICAgICAgICAgICAgICAgICAgICAgICAgICAgICAgICAgICAgICAgICAgICAgICAgICAgICAgICAgICAgICAgICAgICAgICAgICAgICAgICAgIAogICAgICAgICAgICAgICAgICAgICAgICAgICAgICAgICAgICAgICAgICAgICAgICAgICAgICAgICAgICAgICAgICAgICAgICAgICAgICAgICAgICAgICAgICAgICAgICAgICAgCiAgICAgICAgICAgICAgICAgICAgICAgICAgICAgICAgICAgICAgICAgICAgICAgICAgICAgICAgICAgICAgICAgICAgICAgICAgICAgICAgICAgICAgICAgICAgICAgICAgICAKICAgICAgICAgICAgICAgICAgICAgICAgICAgICAgICAgICAgICAgICAgICAgICAgICAgICAgICAgICAgICAgICAgICAgICAgICAgICAgICAgICAgICAgICAgICAgICAgICAgIAogICAgICAgICAgICAgICAgICAgICAgICAgICAgICAgICAgICAgICAgICAgICAgICAgICAgICAgICAgICAgICAgICAgICAgICAgICAgICAgICAgICAgICAgICAgICAgICAgICAgCiAgICAgICAgICAgICAgICAgICAgICAgICAgICAgICAgICAgICAgICAgICAgICAgICAgICAgICAgICAgICAgICAgICAgICAgICAgICAgICAgICAgICAgICAgICAgICAgICAgICAKICAgICAgICAgICAgICAgICAgICAgICAgICAgICAgICAgICAgICAgICAgICAgICAgICAgICAgICAgICAgICAgICAgICAgICAgICAgICAgICAgICAgICAgICAgICAgICAgICAgIAogICAgICAgICAgICAgICAgICAgICAgICAgICAgICAgICAgICAgICAgICAgICAgICAgICAgICAgICAgICAgICAgICAgICAgICAgICAgICAgICAgICAgICAgICAgICAgICAgICAgCiAgICAgICAgICAgICAgICAgICAgICAgICAgICAgICAgICAgICAgICAgICAgICAgICAgICAgICAgICAgICAgICAgICAgICAgICAgICAgICAgICAgICAgICAgICAgICAgICAgICAKICAgICAgICAgICAgICAgICAgICAgICAgICAgICAgICAgICAgICAgICAgICAgICAgICAgICAgICAgICAgICAgICAgICAgICAgICAgICAgICAgICAgICAgICAgICAgICAgICAgIAogICAgICAgICAgICAgICAgICAgICAgICAgICAgICAgICAgICAgICAgICAgICAgICAgICAgICAgICAgICAgICAgICAgICAgICAgICAgICAgICAgICAgICAgICAgICAgICAgICAgCiAgICAgICAgICAgICAgICAgICAgICAgICAgICAgICAgICAgICAgICAgICAgICAgICAgICAgICAgICAgICAgICAgICAgICAgICAgICAgICAgICAgICAgICAgICAgICAgICAgICAKICAgICAgICAgICAgICAgICAgICAgICAgICAgICAgICAgICAgICAgICAgICAgICAgICAgICAgICAgICAgICAgICAgICAgICAgICAgICAgICAgICAgICAgICAgICAgICAgICAgIAogICAgICAgICAgICAgICAgICAgICAgICAgICAgICAgICAgICAgICAgICAgICAgICAgICAgICAgICAgICAgICAgICAgICAgICAgICAgICAgICAgICAgICAgICAgICAgICAgICAgCiAgICAgICAgICAgICAgICAgICAgICAgICAgICAgICAgICAgICAgICAgICAgICAgICAgICAgICAgICAgICAgICAgICAgICAgICAgICAgICAgICAgICAgICAgICAgICAgICAgICAKICAgICAgICAgICAgICAgICAgICAgICAgICAgICAgICAgICAgICAgICAgICAgICAgICAgICAgICAgICAgICAgICAgICAgICAgICAgICAgICAgICAgICAgICAgICAgICAgICAgIAogICAgICAgICAgICAgICAgICAgICAgICAgICAgICAgICAgICAgICAgICAgICAgICAgICAgICAgICAgICAgICAgICAgICAgICAgICAgICAgICAgICAgICAgICAgICAgICAgICAgCiAgICAgICAgICAgICAgICAgICAgICAgICAgICAgICAgICAgICAgICAgICAgICAgICAgICAgICAgICAgICAgICAgICAgICAgICAgICAgICAgICAgICAgICAgICAgICAgICAgICAKICAgICAgICAgICAgICAgICAgICAgICAgICAgICAgICAgICAgICAgICAgICAgICAgICAgICAgICAgICAgICAgICAgICAgICAgICAgICAgICAgICAgICAgICAgICAgICAgICAgIAogICAgICAgICAgICAgICAgICAgICAgICAgICAgICAgICAgICAgICAgICAgICAgICAgICAgICAgICAgICAgICAgICAgICAgICAgICAgICAgICAgICAgICAgICAgICAgICAgICAgCiAgICAgICAgICAgICAgICAgICAgICAgICAgICAgICAgICAgICAgICAgICAgICAgICAgICAgICAgICAgICAgICAgICAgICAgICAgICAgICAgICAgICAgICAgICAgICAgICAgICAKICAgICAgICAgICAgICAgICAgICAgICAgICAgICAgICAgICAgICAgICAgICAgICAgICAgICAgICAgICAgICAgICAgICAgICAgICAgICAgICAgICAgICAgICAgICAgICAgICAgIAogICAgICAgICAgICAgICAgICAgICAgICAgICAgICAgICAgICAgICAgICAgICAgICAgICAgICAgICAgICAgICAgICAgICAgICAgICAgICAgICAgICAgICAgICAgICAgICAgICAgCiAgICAgICAgICAgICAgICAgICAgICAgICAgICAgICAgICAgICAgICAgICAgICAgICAgICAgICAgICAgICAgICAgICAgICAgICAgICAgICAgICAgICAgICAgICAgICAgICAgICAKICAgICAgICAgICAgICAgICAgICAgICAgICAgICAgICAgICAgICAgICAgICAgICAgICAgICAgICAgICAgICAgICAgICAgICAgICAgICAgICAgICAgICAgICAgICAgICAgICAgIAogICAgICAgICAgICAgICAgICAgICAgICAgICAgICAgICAgICAgICAgICAgICAgICAgICAgICAgICAgICAgICAgICAgICAgICAgICAgICAgICAgICAgICAgICAgICAgICAgICAgCiAgICAgICAgICAgICAgICAgICAgICAgICAgICAgICAgICAgICAgICAgICAgICAgICAgICAgICAgICAgICAgICAgICAgICAgICAgICAgICAgICAgICAgICAgICAgICAgICAgICAKICAgICAgICAgICAgICAgICAgICAgICAgICAgICAgICAgICAgICAgICAgICAgICAgICAgICAgICAgICAgICAgICAgICAgICAgICAgICAgICAgICAgICAgICAgICAgICAgICAgIAogICAgICAgICAgICAgICAgICAgICAgICAgICAgICAgICAgICAgICAgICAgICAgICAgICAgICAgICAgICAgICAgICAgICAgICAgICAgICAgICAgICAgICAgICAgICAgICAgICAgCiAgICAgICAgICAgICAgICAgICAgICAgICAgICAgICAgICAgICAgICAgICAgICAgICAgICAgICAgICAgICAgICAgICAgICAgICAgICAgICAgICAgICAgICAgICAgICAgICAgICAKICAgICAgICAgICAgICAgICAgICAgICAgICAgICAgICAgICAgICAgICAgICAgICAgICAgICAgICAgICAgICAgICAgICAgICAgICAgICAgICAgICAgICAgICAgICAgICAgICAgIAogICAgICAgICAgICAgICAgICAgICAgICAgICAgICAgICAgICAgICAgICAgICAgICAgICAgICAgICAgICAgICAgICAgICAgICAgICAgICAgICAgICAgICAgICAgICAgICAgICAgCiAgICAgICAgICAgICAgICAgICAgICAgICAgICAgICAgICAgICAgICAgICAgICAgICAgICAgICAgICAgICAgICAgICAgICAgICAgICAgICAgICAgICAgICAgICAgICAgICAgICAKICAgICAgICAgICAgICAgICAgICAgICAgICAgICAgICAgICAgICAgICAgICAgICAgICAgICAgICAgICAgICAgICAgICAgICAgICAgICAgICAgICAgICAgICAgICAgICAgICAgIAogICAgICAgICAgICAgICAgICAgICAgICAgICAgICAgICAgICAgICAgICAgICAgICAgICAgICAgICAgICAgICAgICAgICAgICAgICAgICAgICAgICAgICAgICAgICAgICAgICAgCiAgICAgICAgICAgICAgICAgICAgICAgICAgICAgICAgICAgICAgICAgICAgICAgICAgICAgICAgICAgICAgICAgICAgICAgICAgICAgICAgICAgICAgICAgICAgICAgICAgICAKICAgICAgICAgICAgICAgICAgICAgICAgICAgICAgICAgICAgICAgICAgICAgICAgICAgICAgICAgICAgICAgICAgICAgICAgICAgICAgICAgICAgICAgICAgICAgICAgICAgIAogICAgICAgICAgICAgICAgICAgICAgICAgICAgICAgICAgICAgICAgICAgICAgICAgICAgICAgICAgICAgICAgICAgICAgICAgICAgICAgICAgICAgICAgICAgICAgICAgICAgCiAgICAgICAgICAgICAgICAgICAgICAgICAgICAgICAgICAgICAgICAgICAgICAgICAgICAgICAgICAgICAgICAgICAgICAgICAgICAgICAgICAgICAgICAgICAgICAgICAgICAKICAgICAgICAgICAgICAgICAgICAgICAgICAgICAgICAgICAgICAgICAgICAgICAgICAgICAgICAgICAgICAgICAgICAgICAgICAgICAgICAgICAgICAgICAgICAgICAgICAgIAogICAgICAgICAgICAgICAgICAgICAgICAgICAgICAgICAgICAgICAgICAgICAgICAgICAgICAgICAgICAgICAgICAgICAgICAgICAgICAgICAgICAgICAgICAgICAgICAgICAgCiAgICAgICAgICAgICAgICAgICAgICAgICAgICAgICAgICAgICAgICAgICAgICAgICAgICAgICAgICAgICAgICAgICAgICAgICAgICAgICAgICAgICAgICAgICAgICAgICAgICAKICAgICAgICAgICAgICAgICAgICAgICAgICAgICAgICAgICAgICAgICAgICAgICAgICAgICAgICAgICAgICAgICAgICAgICAgICAgICAgICAgICAgICAgICAgICAgICAgICAgIAogICAgICAgICAgICAgICAgICAgICAgICAgICAgICAgICAgICAgICAgICAgICAgICAgICAgICAgICAgICAgICAgICAgICAgICAgICAgICAgICAgICAgICAgICAgICAgICAgICAgCiAgICAgICAgICAgICAgICAgICAgICAgICAgICAgICAgICAgICAgICAgICAgICAgICAgICAgICAgICAgICAgICAgICAgICAgICAgICAgICAgICAgICAgICAgICAgICAgICAgICAKICAgICAgICAgICAgICAgICAgICAgICAgICAgICAgICAgICAgICAgICAgICAgICAgICAgICAgICAgICAgICAgICAgICAgICAgICAgICAgICAgICAgICAgICAgICAgICAgICAgIAogICAgICAgICAgICAgICAgICAgICAgICAgICAgICAgICAgICAgICAgICAgICAgICAgICAgICAgICAgICAgICAgICAgICAgICAgICAgICAgICAgICAgICAgICAgICAgICAgICAgCiAgICAgICAgICAgICAgICAgICAgICAgICAgICAgICAgICAgICAgICAgICAgICAgICAgICAgICAgICAgICAgICAgICAgICAgICAgICAgICAgICAgICAgICAgICAgICAgICAgICAKICAgICAgICAgICAgICAgICAgICAgICAgICAgICAgICAgICAgICAgICAgICAgICAgICAgICAgICAgICAgICAgICAgICAgICAgICAgICAgICAgICAgICAgICAgICAgICAgICAgIAogICAgICAgICAgICAgICAgICAgICAgICAgICAgICAgICAgICAgICAgICAgICAgICAgICAgICAgICAgICAgICAgICAgICAgICAgICAgICAgICAgICAgICAgICAgICAgICAgICAgCiAgICAgICAgICAgICAgICAgICAgICAgICAgICAgICAgICAgICAgICAgICAgICAgICAgICAgICAgICAgICAgICAgICAgICAgICAgICAgICAgICAgICAgICAgICAgICAgICAgICAKICAgICAgICAgICAgICAgICAgICAgICAgICAgICAgICAgICAgICAgICAgICAgICAgICAgICAgICAgICAgICAgICAgICAgICAgICAgICAgICAgICAgICAgICAgICAgICAgICAgIAogICAgICAgICAgICAgICAgICAgICAgICAgICAgICAgICAgICAgICAgICAgICAgICAgICAgICAgICAgICAgICAgICAgICAgICAgICAgICAgICAgICAgICAgICAgICAgICAgICAgCiAgICAgICAgICAgICAgICAgICAgICAgICAgICAgICAgICAgICAgICAgICAgICAgICAgICAgICAgICAgICAgICAgICAgICAgICAgICAgICAgICAgICAgICAgICAgICAgICAgICAKICAgICAgICAgICAgICAgICAgICAgICAgICAgICAgICAgICAgICAgICAgICAgICAgICAgICAgICAgICAgICAgICAgICAgICAgICAgICAgICAgICAgICAgICAgICAgICAgICAgIAogICAgICAgICAgICAgICAgICAgICAgICAgICAgICAgICAgICAgICAgICAgICAgICAgICAgICAgICAgICAgICAgICAgICAgICAgICAgICAgICAgICAgICAgICAgICAgICAgICAgCiAgICAgICAgICAgICAgICAgICAgICAgICAgICAgICAgICAgICAgICAgICAgICAgICAgICAgICAgICAgICAgICAgICAgICAgICAgICAgICAgICAgICAgICAgICAgICAgICAgICAKICAgICAgICAgICAgICAgICAgICAgICAgICAgICAgICAgICAgICAgICAgICAgICAgICAgICAgICAgICAgICAgICAgICAgICAgICAgICAgICAgICAgICAgICAgICAgICAgICAgIAogICAgICAgICAgICAgICAgICAgICAgICAgICAgICAgICAgICAgICAgICAgICAgICAgICAgICAgICAgICAgICAgICAgICAgICAgICAgICAgICAgICAgICAgICAgICAgICAgICAgCiAgICAgICAgICAgICAgICAgICAgICAgICAgICAgICAgICAgICAgICAgICAgICAgICAgICAgICAgICAgICAgICAgICAgICAgICAgICAgICAgICAgICAgICAgICAgICAgICAgICAKICAgICAgICAgICAgICAgICAgICAgICAgICAgICAgICAgICAgICAgICAgICAgICAgICAgICAgICAgICAgICAgICAgICAgICAgICAgICAgICAgICAgICAgICAgICAgICAgICAgIAogICAgICAgICAgICAgICAgICAgICAgICAgICAgICAgICAgICAgICAgICAgICAgICAgICAgICAgICAgICAgICAgICAgICAgICAgICAgICAgICAgICAgICAgICAgICAgICAgICAgCiAgICAgICAgICAgICAgICAgICAgICAgICAgICAgICAgICAgICAgICAgICAgICAgICAgICAgICAgICAgICAgICAgICAgICAgICAgICAgICAgICAgICAgICAgICAgICAgICAgICAKICAgICAgICAgICAgICAgICAgICAgICAgICAgICAgICAgICAgICAgICAgICAgICAgICAgICAgICAgICAgICAgICAgICAgICAgICAgICAgICAgICAgICAgICAgICAgICAgICAgIAogICAgICAgICAgICAgICAgICAgICAgICAgICAgICAgICAgICAgICAgICAgICAgICAgICAgICAgICAgICAgICAgICAgICAgICAgICAgICAgICAgICAgICAgICAgICAgICAgICAgCiAgICAgICAgICAgICAgICAgICAgICAgICAgICAgICAgICAgICAgICAgICAgICAgICAgICAgICAgICAgICAgICAgICAgICAgICAgICAgICAgICAgICAgICAgICAgICAgICAgICAKICAgICAgICAgICAgICAgICAgICAgICAgICAgICAgICAgICAgICAgICAgICAgICAgICAgICAgICAgICAgICAgICAgICAgICAgICAgICAgICAgICAgICAgICAgICAgICAgICAgIAogICAgICAgICAgICAgICAgICAgICAgICAgICAgICAgICAgICAgICAgICAgICAgICAgICAgICAgICAgICAgICAgICAgICAgICAgICAgICAgICAgICAgICAgICAgICAgICAgICAgCiAgICAgICAgICAgICAgICAgICAgICAgICAgICAgICAgICAgICAgICAgICAgICAgICAgICAgICAgICAgICAgICAgICAgICAgICAgICAgICAgICAgICAgICAgICAgICAgICAgICAKICAgICAgICAgICAgICAgICAgICAgICAgICAgICAgICAgICAgICAgICAgICAgICAgICAgICAgICAgICAgICAgICAgIDw/eHBhY2tldCBlbmQ9J3cnPz7/2wBDAAMCAgMCAgMDAwMEAwMEBQgFBQQEBQoHBwYIDAoMDAsKCwsNDhIQDQ4RDgsLEBYQERMUFRUVDA8XGBYUGBIUFRT/2wBDAQMEBAUEBQkFBQkUDQsNFBQUFBQUFBQUFBQUFBQUFBQUFBQUFBQUFBQUFBQUFBQUFBQUFBQUFBQUFBQUFBQUFBT/wAARCAElAcYDASIAAhEBAxEB/8QAHwAAAQUBAQEBAQEAAAAAAAAAAAECAwQFBgcICQoL/8QAtRAAAgEDAwIEAwUFBAQAAAF9AQIDAAQRBRIhMUEGE1FhByJxFDKBkaEII0KxwRVS0fAkM2JyggkKFhcYGRolJicoKSo0NTY3ODk6Q0RFRkdISUpTVFVWV1hZWmNkZWZnaGlqc3R1dnd4eXqDhIWGh4iJipKTlJWWl5iZmqKjpKWmp6ipqrKztLW2t7i5usLDxMXGx8jJytLT1NXW19jZ2uHi4+Tl5ufo6erx8vP09fb3+Pn6/8QAHwEAAwEBAQEBAQEBAQAAAAAAAAECAwQFBgcICQoL/8QAtREAAgECBAQDBAcFBAQAAQJ3AAECAxEEBSExBhJBUQdhcRMiMoEIFEKRobHBCSMzUvAVYnLRChYkNOEl8RcYGRomJygpKjU2Nzg5OkNERUZHSElKU1RVVldYWVpjZGVmZ2hpanN0dXZ3eHl6goOEhYaHiImKkpOUlZaXmJmaoqOkpaanqKmqsrO0tba3uLm6wsPExcbHyMnK0tPU1dbX2Nna4uPk5ebn6Onq8vP09fb3+Pn6/9oADAMBAAIRAxEAPwD9TvX605P/AK1fO/jjwje+GvipZeJvC+q65d6rY21/f6/bzalNLa3Fr9mkFrbG2LeUjeeIymxFO2KXnLZPDfD74o3/AIGi+GPiDUdQvtVtfEXw71HxP4iUyvK0k8EdpcCdFJ+Rv38sYC8Y2L0RalbLzG1u+i/yufYlNNcR8MfHWs+OrSa71XwRq3g5PKiltzql1ZT/AGkOGJC/Z5pCpTC7gwUfOMFvm29vVbMXmIf1oVcGkYn6VieGfFlj4muNRjs/MDWM7W0okXHzD09q5pVqdOcac5WctEvTUq11c36KKK6SQooooAKKKKACiiigAooooAKKKKACmt2ob7v+Fed/Gj40aR8D/DtvrWtWGp3tnLcCAnTbYSlCQTlskADCnkn09aic404uUnZI6MPh62KqxoUI805aJLqegblwxz+lKnPPWvJPhr+1B8OfixqkWl6BryyarKCVsLiJ4ZTgbmA3ABiAD90nvXrG4FiP4u3FKnUhUV6buaYrA4nAVXRxVJwl2krP19B24K3b8KkU+2K8q+Mv7RHg34HWKyeIb5pL2UZh0yyAkuph3wmQMe5IHTnmuk+EvxN0r4veCdP8T6Is6afeBwqXKhZUZXKsrAEjIKnoTU+2pyqeyT1RpLL8XTw0cbOlJUpOyk1o35HZ0UUlbHni0UUUAFFJS0AFFFFABRRRQAUUUUAFFFFABRRRQAUUUUAFFFFABRRRQAUUUUAFFFFABRRRQAUUUUAFFFFABRRRQB5tp3wF8K6Z4um8SQv4gOpTXhvpI5PE+qS2UlwRjebR7gwcADA2YAUY6CuY+J3wp8NeBvgx8Rr3RtPNtIvhLVLODdPJIltbtDJIYYVZisUe7B2IAOFHRQB7hXBfH/8A5IP8SP8AsWtS/wDSWSjYDovBX/Io6J/14wf+ilraasbwX/yKGh/9eEH/AKLWtlqAGs20ZJwOteY+C8aP8XfF2mD7t0kd6v6Z/WQ16Y2ducZ5rzPxI39j/Gjwzffdjv7WSzY+65I/Vlr5PPP3Lw2J/kqK/pLRm1P7S8j03nmnLXAfFr4gT+BdFtZbNI5ry4m2pHJ02KCzN/L867fTbqO+s4LiLBjlRXXHoQCP0r2aWPoVsXUwcH78Em/mRyOMblqiiivTICiiigAooooAKKKKACiiigAqG6jWSPayhh/tDIqamt2oDXofIn7Xnh2x+Gfif4efFLTLCCxfSdbji1GW1gWNpLeTlt5AycBWT/trX0v4u8WWnhXwRq/iO4bbY6fZSXrsp52IhY498DiuQ/aa8Dj4gfA3xhpIUvObJri3C9fNiIkTH1KAfjXzD4/+Ll18RP2Q/h34a02Tdr/iu5t9AkU9W8lwkjN7ErGP+2leJUqLCVKluq5v0/yP0zBYOWf4PBKb/h1HTk/7j9+/ySkd5+yD8IbLxN4cf4q+LbNNV8XeILm4uY7q8/e/Z4i5VRGG4XIU4I52kVb/AGNbhvA3jD4nfC6YlE0XVmvbBXOWNrKBtA9gojP/AG0r6M8H+Hbfwn4X0rQ7QYt9OtIrWLPXaihQfxx/Ovm34nN/wqn9szwL4njHk6b4ts5NFvGXhTMCoQn3J8hfotOVBYWNOcej1+e/4jpZjPPa+PwknpUi5U129nrFL/t26Pq89DikTB6Vkt4k0yHVotNbULRb2Vd0duZ1EjeuF6mtSMANkGvZi1LVH5pKEqaXNG1/yJRTHytK3K9OfQ1xnxJ+K3hT4V6Omo+KtZh0q0d9iF9zSOx6BUUFm/AUSkoLmZpRoVMTNUqMXKT2SV38jsl69MGhD82M5/CqWm6lDq1jBd2swmgnQSRyKOGU8g9PSrqqd2Se3Sq0aujBpxdpbr8PUkooopDCiiigAooooAKKKKACiiigAooooAKKKKACiiigAooooAKKKKACiiigAooooAKKKKACiiigArgvj/8A8kH+JH/Ytal/6SyV3tcF8f8A/kg/xI/7FrUv/SWSgDo/Bf8AyKGh/wDXhB/6LWtqsXwX/wAihof/AF4Qf+i1raoAa3PHY9a8y+Ny/wBn2fh/WlGTp2pRyNjsp55/FVH416diuO+L2l/2t8O9ZiA+aOLzx6jYQ5/QGvn8+o+2y6tbdK/3a/obUWozVzzn4hWx8e+LNbiBL2Xh/S3kAU5DTMu7H6f+OV6b8LtQGpeAdCkyCy2iRH6oNh/Va5b4KaCf+EKur+8LS3WsSvLK7dWXlR+eCfxq38BZ3HgyaxkPz2F5LbkfiG/mxr4zIYVaeOpYyv8AHiYuT+Wq+5G1S3LyL7J6TRRRX6mcYUUUUAFFFFABRRRQAUUUUAFNbtxTqa+eKAK80YZGBXcCCNtfn3+z78Hby1/a71fQLiOb+wPBdzeajZwun7qIzlVgAPqUw/8A2yr9Cj064qGOBIrhnREUsMkgcmuKvho4iUJt25WfTZRn1XJ8PisPTjze2jy/4fNfK6+Y9OPlA4XivNvjt8CdE+PXhm00fWLi7svsl0t3BdWLhJUYKy9SDxhzxj0r0oPwAe9O524rqnTjOHI1oeFhcVXwNaOIw8+WcXo0fK+sfsA+CYfDcw8O3uqaX4qhYTWeuSXbvLHKvIJVdq4J7gA+hrN8K/tbat8HfM8L/GnRdStNWsm8tNcsbXzba9j/AIZCRjn12jn0U5UfW7fLgAAj0zTJrWK4UiWJXDDBDAGuD6kqWuGfJ+Nz6iHEc8XTdHOYPEQ6PmtOL8pWenk012sfLviD9s2Xx1cJ4f8Agz4du/GPiGdcfaZ4GhtrL/ak37eme5A9+gPC/E39lPVpvhT4z8d/ETX5vFHjuPTpbuILIy21gEHmbIwAM4CnkKo/2e5+0dJ0HT9GWRbGxt7ISNvdbeJU3N6nHesv4laONe+H3iXTiN32zTbi2x/vxMv9axnhJ1ISlXnzOztbRL5HoYLiKnl+Joxyej7GPNHmk3zTkrq6crKy8opX63Oc/Zw1Zdc+BPgS6373/se3iduuWRAh5+qmvSE+905r58/YR1Y6p+zf4ejY5ks5Li2Yem2dyP8Ax0rX0IvHGa7cLLmowa7L8j5nPKKoZpiaaWinK3pd2/AfRRRXWeIFFFFABRRRQAUUUUAFFFFABRRRQAUUUUAFFFFABRRRQAUUUUAFFFFABRRRQAUUUUAFFFFABXBfH/8A5IP8SP8AsWtS/wDSWSu9rgvj/wD8kH+JH/Ytal/6SyUAdH4L/wCRQ0P/AK8IP/Ra1tVi+C/+RQ0P/rwg/wDRa1tUAFMkUSIVYAqeoIzmn0hpPVWYESpsjwoAAHAxXm/wzzpvjzxvpbHH+lLdov8AsybmP81r0rPH415lFjR/jxIDwupaZkf7ykf0jNfLZuvZ4jB1ukZ2+9WN4bSPUMilqNWBz7Hn+dPDBuhr6jmWljAWik3Ad6WnfoAUUUUwCiiigAooooAKKKKAEpaKKAEpaKKAEpaKKACoLxfMt3TGdwxU9NfHGRmkNPldz5c/YMX+yPBvjfw4x+bR/E93aqvom1AP1Vq+o1HFfK/7L7HRf2hfjroROFfVYdSRfeXzGb9GSvqkVw4H/d4r1/Nn1fFSTzWpVW01GX3xTFooorvPkwooooAKKKKACiiigAooooAKKKKACiiigAooooAKKKKACiiigAooooAKKKKACiiigAooooAK4L4//wDJB/iR/wBi1qX/AKSyV3tcF8f/APkg/wASP+xa1L/0lkoA6PwX/wAihof/AF4Qf+i1rarF8F/8ihof/XhB/wCi1raoAKQ9qWkNADW9+1ch44+H0Pi5ra7ju5tO1S1yLe8tz8yex9vxFdjSYrgxeDo46i6GIV0VGXK7o8k/s34l6h/xJ7i6s7K1A2vrMP8ArHH+yN3X/gK9Kb4Et5fh38QLzwxPPLPZalELuzmm6tIAd4P15/75r1pj68c1558Y9HmfRrXXrEZ1DR5hcpjumRuB9s4P4V8Xjco/s+CzGjOdSpTd/eb+DrG21vlfTc6IVHP3X1Mn43anf339n+GtJLm8ui11IsRwdiAkL+LAn6rXa/DjxGPFXhHTr8tumaLy5jn+NeCfx6/QiuN+Fcj+NPFGt+MJ4mSJwtlaRyfwKAC349PxZqm+HzHwh8QvEHhqQ7LW5IvrMH7uD1A/MD/gFceXYutLHwzWUv3WIbil2S+F/wDb2pcorlcOq/pnqtFNXHalr9OOIWiikpgLRRRQAUUUUAFFFFABRRRQAUUUUAFMk+7+Ip9Nf7tAHyv4MU+Hv29vGdu37uHWvD0N6o9XQwx/yQ19SxsDjHpmvln4nH/hH/25vhrfr8keq6NcafIfXaJnH6sK+po/vZrzsH/y8h2kz67iH31g6/8ANRh/5LeP6EtFJS16J8iFFJmjNAC0UUUAFFJS0AFFFFABSGiigBNpoAqvqeoQaTYT3t3MlvaW8bTTTSNtWONVJZiewABP4V8e2fxr/an8e+Ik1LwN4C8Ay/Di/u1Nhqmoak0lytmzDbLMkdwMSbDuZAvHTsaSd3YOlz7Lpa8t+OHx00P4C+ELbVdZE2o6jf3Men6Totim661S7c4jghTpyerHhVOSc4B1Ph0fH+pRR6n4yk0bS2nTeNB0mGSY2mTnZJdswEzryCUijGfXANNag9DvaMiopW2qODtNfOum/Gfxqf24Lz4V6g+lt4QXwg+v2n2W1dLkyG6jiAldnIO0FuFAHPPOKNweicj6PoxTB0p2eaBDqKTcPWloGFFJRQAtFFFABRRRQAVwXx//AOSD/Ej/ALFrUv8A0lkrva4L4/8A/JB/iR/2LWpf+kslAHR+C/8AkUND/wCvCD/0WtbVYvgv/kUND/68IP8A0WtbVABRRRQAUUUUAJUN5bx3dtJBKgkjkUoyN0IPUVPSVEoqcXF7MDM0PQ7Hw/p0djp1ulraR52xx9Bk5Nc940+Hq+LL2xv7fU7jStSs1Kx3NvnJUjkYBFdl+NIy8V59fAYfEUPq1SF4LpttszRTlF3R5LJqviP4Y65pv9uawdZ8P3T/AGdp3iVWhc/dJIGTn6+terq27kEFcDn1rM8U+HbbxTod3pl2Mw3EezI6oezD3B5rzXQ/+FmWenJokFnZRLakxLqV22Syg/KQAx6dPu9AK+ajOtkeIlQ5Z1aU9Y2vJxfWN+3Zt2NNKuq3PUNa1/TvDtobnU7yGzgzjfM4UZ9PrVqzu4L2GOe3kWaGRQySKcgivPdJ+ESXl2dR8V3z+INRYEBJMrBFnsqj/wCt9KzV8P8Ain4bX0kfhmEa3olwxZbO4cBrVjzgHIO2tZZpmNBrEV8N+6fSPvTXm0v0vYnlg9nqet5//XRXjt34q8a+FdU0nUvEslnHo1zN5E8Frz5O7OGY47Yz1r1+LHykcDaMDHavWy/M6ePlOEYSjKD1UlZ26P0JlFxJKP0pGBxXL+KPiFovhG6tLXULjy5rhgFVV3bQeNzegzgZ9xXoYjFUcJD2teXKiUrnU0o9KggcSAMpyrDIPrmp1rqjJSScXdMTVhaKKKsQUUUUAFMkOF6Zp9MdtuPegD5Z/bGstS8O+LPhf8RLPSbvUtO8MajI+o/YULyJBJ5ZZiOgAVH5OBkjkZr2j4V/GXwh8YtNN/4Y1aC88tR51sW2zwE9pIzyvQ88g9iRXbzRiaPa4AGf4hmvn/4ofsd+HfE2qHxD4RvLjwF4uQl01LSSUjdvV41KrycZwQT3zXm1KdWjUc6KvfdH2GGxmXZlg6WBx7dOVO6jNLmVm72nHf0cX/26z6E3AAc5FPzzyPxr5Ltfix8dvgyv2Pxv4EPj3S4GwNb8PyDzmQD7zRKpJOPVUx6mu8+H37ZHw28dXAtZNVfw5q33G07XIxbyK3pvyUY+wbPtWsMZRk+WT5Zdnp/w/wAjnxHDeYUYOtRiqtNfaptSXztqv+3kj3c47U0g+1Ydr448P3siRRa1p8kjnCot1GS30Ga2uCAVww68GuyMlJaM+bqUalJ2qRaFZioz0p3DAAnJrjPil8VNA+EfhW417xFeLZ2sI+WMcySvgkIijlmODwPQk8AmvCfDv7eOhi4gXxp4S17wTZ3ZLWd/eWzywTR9myFDEkc/IGUf3jXPUxVGk+WcrM9jBZHmOYUXXwtFzgu27fkt2+9tj6o53dCak5NYPhTxVpPjbSbfVdD1K31TTbhd0VxbOGUj8O/tW5935vSuhSjJXi7niyhOnJwqJqS0s1Zod3pG/Oqv9qWv2prcXMXngbjHvG7Hrin3F1DHGZHmRFXkszAAD1NPQfs5bW3JWxt5pY8bgM818v8Axa/bJg0jVrnQfh1oUnj7WbFWmv5LQM1rbxpy43qp3ntxxz1zxXs/wd+LGj/GXwfZ+I9Fm/cypsuLVjl7acAb426cjsehHI4Irlp4qjVm6cJao9rFZFmOBw0MZiKXLCW3fyut436X3N3x14M0n4ieEdV8M69byXmjapA1reW8VxJbtLEwwyeZGyuoI44YZ6dCa/P74sfs0zfsCaxo/wAX/gxrGq2/hOHU7W18UeD7u7ae3ubWaVYg8efvEFgo3FipYMGwCK+7vi5F44m8A6oPhxPo9v4wUK1i2vxyPZsQwLLJ5fzDK5AIzyRXmFv4H+JvxotdFtPixpnhvw3oFjeQahdaPoN9NfyalPC4kiWR5Io1ihEiq+weYx2KN4GQehJ81zw21azPBviVpOufGX/gpz4f0KLWTotj4I8Jtq1nI1slxsmmYRvLFHJ8nm/vo8OyuoMSnadtd34P+MvxE+Fv7YkfwZ8c69/wm3h3xJpUmreH9euLG3try3MYcvDMLdY43AEcnIQH7hzyQPQPip8CtYn+OHhX4xeBZLMeKNLs30fU9L1KRoYNV09yW2eaqMySxv8AMpIKtwDgCpPDPwT1bxN+0HH8YPGtvZ6fqGlaSdG0HRrK5NyLaJ2LyzzSlVBlYuyhVG1V7mqp7K3ne5Du2/lb9TgfCH/BTv4JeOvH2j+D9LvNcOsapfx6dbCbTCsfnO+xctuOAWI5qEqJP+Co0nYn4X5B5xzqIHbtx+eK+uevQ5/z/wDqr5wX4L+O4/202+LJj8OnwqfDQ8Nm0GpXH27b9oE3nmP7NsJyuNu/t97ipj8a+f320K15JJ9v1PPfE3h+C4g+L9r4m1rVPiR48a6vL2wbwvdzRL4WsvIzaRNKZYobaRNu8jcJHzn95g1xGo6b4/8Ajx/wTs8G/ELSPFHiFPiJolg1+81hqVxbvq0ME0iywzLHIPMZkTIYjcWAwcE16L8J/gH8aPhjp/xN8EWl34RuPDHiXV7/AFS18VXs1xJfqt0uGSS1VQHcYHzGUAc/er0n9jf4U+MPgn8BtD8C+NzoguNKSW3gXSbiSYSq0kshZ3dEwSJANgU42ltx3bVPsvl30K5ndJ7Xf3WMbRPiPoH7THwf+G48LXV9aW3iW5jml+z388N1ZQWjB7tXkjYPncqwElsn7Qp75HO6b4i1v45fFr4p+H10WLxB4Y8JXkOgW2lXHiSfTYwwgV5JnSKJ3dizFQ5bACAqM5J2P2Q/gb4Z+HGsfEfxP4WvJ7nwvrWsyLokDvugtoVCC5aD/ZkuFcE91gj9K5T4ofsz/F7wP+0HrPxe+BHiDQluPEESR694V8ULKLK6ZVCeapjGcnap6owO75iCVNtpz8nd/N2/IiMeWPJH7NkvS/6mJefDv4v/AAp/ZD+Ndh408YXRh063vNT8J32l65cS6hZ2qxPIlvNclEdwuEXIZs5boAK7z9kv4K3Vx4Z+FvxU1Tx74p1bW5vCVvb3OmT35OmzJJDGUJhx95APv5+diWNbPib4S/Fbx58AfHmjeItS8O3/AMQ/GFg9hJFbz3Fro2mQmNo1SImOWSQgu7MxUFy2MgKtek/s6eC/EHw5+DPhDwp4mGmnVdC0u3015NJuZJ4JRFGqBw0kcZGdv3dvHqacWvevvoE/hSj1bueixrwpGScDk9fx96mFHSlqR+QUUUUAFcF8f/8Akg/xI/7FrUv/AElkrva4L4//APJB/iR/2LWpf+kslAHR+C/+RQ0P/rwg/wDRa1tVi+C/+RQ0P/rwg/8ARa1tUAFFFFABRRRQAUUUUAJS0UUAFJj2paKACkbpS0jUgMLxj4di8VeHb3TJsATxkKxGdr/wn88V5x4P+L9j4d8Prp3iB5k1ixdrWSFEZ2fYcAhjwT0HXkgnvXsDY7/nVOPSbKO9e5SzgW6b70wRQzfU9a+ax2XYipio4zBVOSduV31TXS601RtGStaR53J8T/EHiBdvhvwneSIy/Lc6h+5X64wf/QvwqTQ/hFBNpd/L4jcanrWoownuWAbyc9FTPTH9K9MVTyBxTuQOayWR+3nz5hUdV+iUV6JdfO4e05fhR5r8MPEVzpdxc+ENafGp6Z8tvI54ng/hIPsP0x3zXba94i0/w3pst/qNwltbRj7znqfQDueOlZPjD4c6P42MUt/E6XcQ2x3UDbXUenIIx9Qa53TPgzbw6pHc6xrF5r1rbn/RrS8JKR9ODyc9OgAHtXHT/tbLofVaNNThe0ZOWye3Mnq7eW5XuS1kRwfHawTEuoaNqmnWch/cXbw7o5F/vZ7V6Do+sWevadBfWMy3FrMMpInQipJLWJrcwvGjxMuwxlflK9MY9K8mtdST4LeKLuwvXk/4RrUA1zaSbSfJk/iTj+f+70GTTnisdk04SzCqqlJ6OVuXlfS/l+IcsZ6RPZKRfvHIx75ryDTdJ174rXB1e7vrzw/o4GLC3tWKSOO0j8dfT68dy095p/jH4cvHqEGpT+KtJUH7Taz/AOuVeu5TznGPXv0raOfVHH27w0vY/wA+m3drewvZdObXsesqvPNGB+NebXPxx0WSygbS47nVdRnGI9PhiYNu9GJGBiqWofFXxRotk13qXgqWC2QbnlF1naP++DW0+JctjrGpzLq4ptL1aVl8w9lNnq1LVHR79NW0+2vos+VcQpMuT2YZ/kRV7vivpoTjUipwd0zHW9mNkQOCrDIrgfiF8D/BPxQh2eJvDdjqTY2rOYwk4HoJVIYfga9AOKawyKqUYzVpK68zfD4ithZqpQm4yXVOzPnLUv2CfhBdWcsVtod5ZzMuFmj1K4LJjuNzsCfqDWDa/s3/ABk8Dk2Hgz4yTpoOcxQ6zaJdTwjoFDOGyB1429OlfVnPGKay7sc8g56VwywNCWsVb0dj6KnxRmqVq1X2q7VEqi/8mTt8j5m8J/sn6rrfjK08UfFfxjJ8QbjT/wDjysJLVYraJsglig4bkZxjt7V9Bap4e07XtNl0/ULK3vbCVdklvcQK6MvoVPBFa7Ku3170hPyg9PrW9PDUqacYLfvq/vPNx+b4zMKsataVuTSKVoqPpFJJHyjrn7O/j34K+KLjX/gffw/2bfPuvfCuqyZtw39+Mlh6dNwPJ+YjAD7rRf2ovHwGmahqfhnwTYTHEt9pgd7gKeoXcW557EfXvX1Wq9Oc0u07jjgVg8FDm0k7duh7C4nxMlGVajTqVFtOcLy9Xd2k10bTZ8tW/wCwB4LuLQy6nrviDUfEbnzJtdN4EnaT1AwR/wB9ZPuaWH9gzQtQkT/hJvHHizxPaxn5LW+vx5e30PBOf90j6V9R/dIwOD70vfBoeX4a2sSP9bc7vdYmX4aemmnyOK+Hvwr8LfCnQW0jwtpEOmWbHMpXLyTN03PIcs5weNxz6V4N4s+Evjv4C/EzUPGvwm0mLXtC1gF9X8LmZYlWQc+ZFkjBb0AOCTgYIA+rs7WHIxTZO3GR7mt6mGhOKUdGtmuhwYPO8Tha1SrU/eKppNTu1Nedmnfs07o+XdP/AG7vDujSJZeOvC3iHwTqigB4bu0Lx59QcKzD/gAo1r9taHxXONI+E/hbUvHOuSDHmtA1va23u5YA9x12j/aFfT1xZW95EUnt45UPVXUEGq2maLZaSrLYWdvZRsclII1QE+vFc/scS1b2unpr/XyPTjmWRxftfqL5+zqPk+a5ea3lzfM+X9M/aw8ZfCy+jsvjb4Kn0KKc/utc0dDNZ89AwDPt6H+LP+z3rWv/ANv/AOGiSCHSIda8QXRGEhsbA5Y9sbyp/SvpG/sLfUrR7e6gjuIJBh45UDKR7g1Dp+k2WmxeXa2kFun92JFUfkBS9lio/DWVvNa/mgeZZJW/e18C1PtCo4w+5xm1/wCBHzFJ+2h4otcanefBXxPbeGFOZtQcETIv9/yimCP+Biu/8L/tjfCbxNZx3CeLLXTZHHzQakDbuh9G3YH5HFe0OgKYCqDXB+IPgH8OvFF1Ld6r4K0S8vJmzJcNYRiRj6lwuT9c0ezxUPhqc3qtPwJ+uZFiVarhJUrdYTv96nf8GjhfG37aXwt8IqIrfXR4kv2/1dnocZuTIT0Acfu8+27P6183/HrVtE/ao1Lwzf678B/HuuQ6DJJJahZJrGKRZNpdJAiOGB2L90g++M19p+Cfgt4H+H7NL4e8Mabpc3OZobceYc/7R+bHA4zXaogDbQAF7DFP2OJm1KVTla7L/MPr2R4dctDCSq+dSdvwgl+bPk7Q/wBpjxt4c0m10vS/2edesNNtY1itrW3dkjiQDAUDyRjGPfr1q9/w2xqnh1vO8Z/CTxV4c07obxIDMi+5LBB+RJ9vT6mMY9vypkkKSLhkVx6FRT9hiN/bNvzSsJZplFrSy6KX92dRP5Xcl96Z8/2/7dnwYmhR5PFE8EhGTG2l3RI9srGV/Wq8P7d/wt1DWbTTdPvdQ1Ce6mSCMx2EqgszADO5Rgc17PcfDnwxdXDSy+HtMklc5Z3tIyxPrkitSx0TT9HUJY2Nvar0xDEsY/QU4wxTfvTTXp/wRTxHD8Ytww1Vt7XqRsvup3LcMvmqGH8Qz9KljY0jKNppY+uOgx0r0Omp8j1uSUUUUhhXBfH/AP5IP8SP+xa1L/0lkrva4L4//wDJB/iR/wBi1qX/AKSyUAdH4L/5FDQ/+vCD/wBFrW1WL4L/AORQ0P8A68IP/Ra1tUAFFFFABRRRQAUUUUAFFFFABRRRQAUUUUAFFFFABRRRQAUlLRQAlZuueH9P8Q28cGo2sd3EkgkVJBkBhnB+vJ/OtOkNZ1KcKsXCaumBFDGscYRFCqvAAHSnyD5cYzS9e9L3ojGMY8qVkMy9P8O6ZpV3cXdpY29vcXBzLJHGAz/Uio/F2l/214W1WxChmuLaSNR/tFSB+uK2GprDPBrjqYSk6E8PCNlJNfehp63OH+DOqf2p8PdMYtuaEPAfYK5Cj/vnbXcr1FeYfBv/AIleo+LNDIwLPUWkQf7DZVf0jFenrXm5BU9pltKL3j7r9Y6FVFaQ6iiivojMKKKKAEoopaAEopaKAEopaKAEopaKAEpOK5H4reNL7wL4Pnv9I0SXxJrs0sdppukwyiL7TcyNtRWkPEaDlnfB2orHBxivkPxl+1N+0D+zZ4y8M33xq8K+C7v4e+IL2OwbUvB8l0ZdMkcZVJPOb5mABJG3B2nDcYqbpyUerHb3XLsfdJoH0rxT4rfG6+0P4peDPhh4SjspfGXiWKW9kutQjaW30ywhBL3EkaujSEt8iIGXJJJOByfD341an/wu3xB8JvGQsv8AhI7LTotb0vUrCFoIdUsHcxsxiZ3MckUoKN8xDZDAL90VHV29fw3Jeiv6fjse2j6UmajkYKoODjOK+ddM+NHjVv237z4V6g+lt4QXwg+v2n2W1dLkyG6jiAldnIO0FuFAHPPOKOthte65dj6P4oxTB0p2eaBdB1FJuHrS0DCikooAKWiigAooooAK4L4//wDJB/iR/wBi1qX/AKSyVLH8TLNviVqXgyayu7S5sdIi1ptQuDGLd4HlaP5SH3Aho3zuVeg4Iry34gfHHSPiB8HfGdnbWt1ZJrngfVdZ0Sa7CgX9msDI0gAJKHMsTbW52yoepKqAe4eC/wDkUND/AOvCD/0WtbVYvgz/AJFLRP8AryhHHb5FraoAKKKKACiiigAooooAKKKKACiiigAooooAKKKKACiiigAooooAKKKKACiiigAprducU6mvnbwMmkwPL7Jv7F+OmoRZ2pqunJKo9XXjP5Ia9Oj55/KvMPiqZNA8UeF/Ey28kttZSSRXTxIWKRuAM4HtvruvDfiPTfElqLnTbyK7iwMmNuVJ7MvVTx0NfI5PVhh8TicFUlaXO5JeTtt8zep70VM2aKTcPWjcPWvreZGAUGkas+71vT7G4W3ub22gmYZWOWVVYj1wazqVIU/jdhmhxRiqF1rFjYwie4vLeCJukksiqPwJrHb4leFlYj+3rH8JlrkqZhhKP8WrFfNFcsuiOmorm1+InhllLDXtN2jn/j6TP5ZrNj+L/hO41GOyj1WNpHO1ZNpCZ/38YrCWbYCFlKvHXazQ+SfVHb/WlqGFhIAwIKkcc5/I1IWHHNenzRstdCB2aKzb7XdO09gt3fWtsScDzZlX+fer0Lh8MpDAjORzn3zUQrUqj5YSu0Asg2rk5OOw5/SvmT9oXwbH+0x8RPCPw3gUzeFvDOrQ+IPFd91RGiRjb2APeSTfucdVjAJ++K9h+N9v8Qr34d6ja/C+XQrTxfcYit77xDNLHbWikHdMBHFIXdR91SAuTknjafmTwr8OP2yvCPhuHRNK1T4Labakl5LpF1SW5aRzukmZpIz5kzEsxZ+pOT7arWSfYW0WGixyTf8ABVzXTeltsXw7jNgD02faY93/AI95n60vxYldP+CoXwe+y7lI8IX5utuSBGPtJG4AjI3BfxxXq/j/AOA+syfEjwB8TPDF3Bf+MvDVi+kahHqUhgXWbGRPnV3VGKSLJ+8T5ducgkZyLnw7+C+pS/HDxB8XvGSWUXiS80yLRNJ0yxlaePTLBGMhDSlV8yV5GLHC4UAAE5JJDeC/lTv66/ncT15/NL9PyPOvCP8AwU6+CPjrx9pHg7S73XG1nVNQTTbcS6YVjMzvsUFt3A3Ec1BtD/8ABUaTnB/4Vfwee+ogZ47cfnivrlSePp6V84r8F/HiftpN8WjH4dPhQ+Gh4bNqNSuPt+37QJvPMf2bYTlcbd/b73FVFe+pdk1+ASu4Tt1svxPPfE3h+C4g+L9r4m1rVPiR48a6vL2wbwvdzRL4WsvIzaRNKZYobaRNu8jcJHzn95g1xGo6b4/+PH/BOzwb8QtI8UeIU+ImiWDX7zWGpXFu+rQwTSLLDMscg8xmRMhiNxYDBwTXovwn+AXxp+GOn/E3wRaXfhG48MeJdXv9UtfFV7NcSX6rdLhkktVUB3GB8xlAHP3q9J/Y3+FPjD4J/AbQ/Avjc6ILjSklt4F0m4kmEqNJLIWd3RMEiQDYFONpbcd21V9luO+hXM7pPa7+6xjaJ8R9A/aY+D/w3Hha6vrS28S3Mc0v2e/nhurKC0YPdq8kbB87lWAktk/aFPfI53TfEWt/HL4tfFPw+uixeIPDHhK8h0C20q48ST6bGGECvJM6RRO7sWYqHLYAQFRnJOx+yH8DfDPw41j4j+J/C15Pc+F9a1mRdEgd90FtCoQXLQf7MlwrgnusEfpXKfFD9mf4veB/2g9Z+L3wI8QaEtx4giSPXvCvihZRZXTKoTzVMYzk7VPVGB3fMQSpttOfk7v5u35Exjyx5I/Ztb0v+piXnw7+L/wp/ZD+Ndh408YXRh063vNT8J32l65cS6hZ2qxPIlvNclEdwuEXIZs5boAK7z9kv4K3Vx4Z+FvxU1Tx74p1bW5vCVvb3OmT35OmzJJDGUJhx95APv5+diWNbPib4S/Fbx58AfHmjeItS8O3/wAQ/GFg9hJFbT3Fro2mQmNo0SImOWSQgu7MxUFy2MgKtek/s6eC/EHw5+DPhDwp4mGmnVdC0u3015NJuZJ4JRFGqBw0kcZGdv3dvHqaqNvevvoE9YpR6t3PRY14UjJOByev4+9TCjOKWoGFFFFAHi2teBdZ8QfHbxFeTaVcw+GtT8Gpog1cSwlfONxMxGwP5n3ZBztxxya8X1/4R+JLP4V2L67pzabb+AfhdrOgSyvIhS/uZLWKIPEAxIj8u13neBzIi7cqQv2hXA/H7/khHxI/7FrUv/SWSlpdPqhttx5ehD8F/h5pPgPwzaSaXLrTtqFlatMura5fakFKx5GxbmaQRH5znZjdhc52rj0T+KsXwXj/AIRHQv8Arxg/9FrW1T1buydLWQtFFFAwooooAKKKKACiiigAooooAKKKKACiiigAooooAKKKKACiiigAooooAKa2adSNSeoEU8ayRlXUMpGCp6GuA1j4N6ReX7X2mT3eg3xyfMsH2Dd67cfyxXodJXm4vL8LjopYiF/PZ/etS4ylHY8v/wCFa+LJW8iTxzdC0Xo0cOJSPds5z+P4U7/hWXibTvm07x1f7hztvYzMD+Jbj8jXp9FeR/q3l/RS/wDA53/Mv2sjyq4h+KVnGbVJNJ1AvwLtQFaP3wcD9DVrS/gjpLxST+IJJtd1Ob5pbqWV1GfRQGPA9yfbHSvSu1HpRT4fwvNfESlVXRTlzJfLr6u7D2kuh55b/Avwlbz+YbOacdo5Z2Kj8ua2k+GvheNAo0Kx9OYQx/Ouporup5JltH+Hh4q/kifaTe8jlG+FvhV2DHQ7Tg54TA/Kp9Q+H/h+/wBNfT30i0W3cciKFUI9xjvXScUFd1bf2XgIxcVRjr5ISnLueVW/wz8WaXnT9L8Xy2mjZ/drJCJJoh/dDen5fh3nHwTjvFzqfibWr5z94/aAqt+BDfzr08EUNz0ry48NZfblmnLycpNL5Xsae1medw/AzwnDGUaxnuCwIMstw5P14YD9KzofCPjPwPIYvDN/DqmlMDstNUYkwc8BTkEj8fw7j1SitKnDuX6PDx9k11h7r/Df5i9rLq7nmD698TLLEk2haZeRL96O1kKv+BMn+NJ/wm3jrX8Q6Z4TGlv0efUpeF9xwM/rXqNJWf8AY+IXuxxs1Ht7rf3tB7Rfynl/274n6PxLYaXridSYZPLcfnt/lSNcfFG/xcJb6PpyJyLVmZ3cehOSP1H1r1Glo/sKWyxdW3+Jfna/4h7T+6eXxfFLXtJ/0fWPBuoi8XjfYqZY39wRnH5mnf8AC3tUPTwNrhHY+Qw/9lr0xlDdgfwoCj0o/s3Mk+WONdv8Mb/PTUOeHWJ5n/wuC9UZn8F65Cvr5BPb6CvG/j58LfBH7SmpeG7/AMbeAvFeoR+HpJJLdLZ5II5EcjekgXhgdg6EH3xmvrHj0pCoPam8uzO6ksbt/ciClCzXLozybw/8XvBnhnRbbTLCxuNJtbKNYLfTI7Xb5agcKoX5ePrnmr3/AAuxV/fTeF9cisz0uDbDB/MivR/s8ZkDtGrOOA2Oak2r6Ung84l8eLj5Wh+fvflYSdNbRPM1+O2n3ny6ZpGq6jN/cit/04J/lUtr8VtVurmCFvBOswrI4UyNEcLz1OQK9I2r6UbRVRwGZ3Up4y/kopL82wcoW0Q1M8E1J3pPalr6SN1ZPczFooorQQVwXx//AOSD/Ej/ALFrUv8A0lkrva4L4/8A/JB/iR/2LWpf+kslAHR+C/8AkUND/wCvCD/0WtbVYvgv/kUND/68IP8A0WtbVABRRRQAUUUUAFFFFABRRRQAUUUUAFFFFABRRRQAUUUUAFFFFABRRRQAUUUUAFFFFABRRRQAlLRRQAUUUUAFFFFACUtFFACUtFFABRRRQAUUUUAFJS0UAFFFFABRRRQAUUUUAFFFFABRRRQAUUUUAFcF8f8A/kg/xI/7FrUv/SWSu9rgvj//AMkH+JH/AGLWpf8ApLJQB0fgv/kUND/68IP/AEWtbVYvgv8A5FDQ/wDrwg/9FrW1QAUUUUAFFFFABRRRQAUUUUAFFFFABRRRQAUUUUAFFFFABRRRQAUUUUAFFFFABRRRQAUUUUAFFFFABRRRQAUUUUAFFFFABRRRQAUUUUAFFFFABRRRQAUUUUAFFFFABRRRQAUUUUAFFFFABRRRQAVwXx//AOSD/Ej/ALFrUv8A0lkrva4L4/8A/JB/iR/2LWpf+kslAHR+C/8AkUND/wCvCD/0WtbVYvgv/kUND/68IP8A0WtbVABRRRQAUUUUAFFFFABRRRQAUUUUAFFFFABRRRQAUUUUAFFFFABRRRQAUUUUAFFFFABRRRQAUUUUAFFFFABRRRQAUUUUAFFFFABRRRQAUUUUAFFFFABRRRQAUUUUAFFFFABRRRQAUUUUAFFFFABXBfH/AP5IP8SP+xa1L/0lkrva4L4//wDJB/iR/wBi1qX/AKSyUAdH4L/5FDQ/+vCD/wBFrW1WL4L/AORQ0P8A68IP/Ra1tUAFFFFABRRRQAUUUUAFFFFABRRRQAUUUUAFFFFABRRRQAUUUUAFFFFABRRRQAUUUUAFFFFABRRRQAUUUUAFFFFABRRRQAUUUUAFFFFABRRRQAUUUUAFFFFABRRRQAUUUUAFFFFABRRRQAUUUUAFcF8f/wDkg/xI/wCxa1L/ANJZK72uC+P/APyQf4kf9i1qX/pLJQB0fgv/AJFDQ/8Arwg/9FrW1WL4L/5FDQ/+vCD/ANFrW1QAUUUUAFFFFABRRRQAUUUUAFFFFABRRRQAUUUUAFFFFABRRRQAUUUUAFFFFABRRRQAUUUUAFFFFABRRRQAUUUUAFFFFABRRRQAUUUUAFFFFABRRRQAUUUUAFFFFABRRRQAUUUUAFFFFABRRRQAVwXx/wD+SD/Ej/sWtS/9JZK72uC+P/8AyQf4kf8AYtal/wCkslAHR+C/+RQ0P/rwg/8ARa1tVi+C/wDkUND/AOvCD/0WtbVABRRRQAUUUUAFFFFABRRRQAUUUUAFFFFABRRRQAUUUUAFFFFABRRRQAUUUUAFFFFABRRRQAUUUUAFFFFABRRRQAUUUUAFFFFABRRRQAUUUUAFFFFABRRRQAUUUUAFFFFABRRRQAUUUUAFFFFABXBfH/8A5IP8SP8AsWtS/wDSWSu9rgvj/wD8kH+JH/Ytal/6SyUAdH4L/wCRQ0P/AK8IP/Ra1tVi+C/+RQ0P/rwg/wDRa1tUAFFFFABRRRQAUUUUAFFFFABRRRQAUUUUAFFFFABRRRQAUUUUAFFFFABRRRQAUUUUAFFFFABRRRQAUUUUAFFFFABRRRQAUUUUAFFFFABRRRQAUUUUAFFFFABRRRQAUUUUAFFFFABRRRQAUUUUAZPibWF8P+HdS1RkMqWNvJdMg43BELkZwcZxjOK+R9W8a+OfGnw00jRBeS63rXxS+GGs6jFZ/u41ttS+zQmFIcj5EIvPLIbI/dKxyS5P2LdRJPbtFKgkifKujDIYY5B9vrxXz14n8I6b+z//AMITNo011qWrXN3a+CfDw1LbLFpNrcTCSUIFCs+2OHjezE+TGufvMTXmVwsnG3UX4R/Hq/sfBujaFcfCL4pQXuj6ZaWs8uoaVG3nFY9hYTPcnzSTGxJLFuQW++Ce3/4Xve/9Es+IH/gttv8A5IrQ+Dvju+8Zf8JdY6msR1Hwzrk2hzXEI2rchY4po5dueCYp4sjpuDYwDgei96NL6Cs0tTyr/he97/0Sz4gf+C22/wDkij/he97/ANEs+IH/AILbb/5Ir1aigZ5T/wAL3vf+iWfED/wW23/yRR/wve9/6JZ8QP8AwW23/wAkV6tRQB5T/wAL3vf+iWfED/wW23/yRTJfjretGQPhZ8QecDjT7YHr/wBfP+ea9ZqtqHn/AGST7M8cc+07GlUsobBwSARkZxxkfWlLRXDfQ+f/AIQfFjxV4Y+GXhjSfE/w7+IWp6/Z6fFb3l29rDO00qqAztI9zucnj5n+YnJPJNdivx2vB/zSz4gf+C62/wDkitL4A+NtU+I3wf8ADHibWRbjVNRtPNuBaIyRbgzD5VZiRwPU/WvQ1OTQ9JC3PLP+F73v/RLPiB/4Lbb/AOSKP+F73v8A0Sz4gf8Agttv/kivVqKYzyn/AIXve/8ARLPiB/4Lbb/5Io/4Xve/9Es+IH/gttv/AJIr1aigDyn/AIXve/8ARLPiB/4Lbb/5IpG+O14VOfhb8QAP+wdb/wDyRXq9UdaN4NJu/wCzlgbUPKb7OLnPleZg7d+OducZxzjOKTdlcDwb4V/FjxZ4d8MT23iX4d/ELUNSfVtUuUma1gm/0ebULiW2TLXGRsgeFNvRQgVflArsf+F8Xn/RLPiB/wCC22/+SKj+E/iLxtJ8QPGvhfxbe6Zr1vpEdncWetaXYvZqTOshe2kjaWX549ituD5KTJuGcE+sD71MSdzyv/he97/0Sz4gf+C22/8Akij/AIXve/8ARLPiB/4Lbb/5Ir1aigZ5T/wve9/6JZ8QP/Bbbf8AyRR/wve9/wCiWfED/wAFtt/8kV6tRQB5T/wve9/6JZ8QP/Bbbf8AyRSN8drwjn4W+Px7nTbbA/8AJivV6iuQWiIHJ7DOM/Wk3bUD5+8DfFjxTo/iLx7dax8OfiFd2mp64t1pMbWsEv2e0FhZwlADcYjBmhnbavB37j8zNXYf8L3vf+iWfED/AMFtt/8AJFUPhR8RNc1r4t+OvCOqeJfDviSLRbaznzpMZguLKeUy+ZbyRmVyyqEjKvxy7KeVIHsefmpvuJanlf8Awve9/wCiWfED/wAFtt/8kUf8L3vf+iWfED/wW23/AMkV6tRQM8p/4Xve/wDRLPiB/wCC22/+SKP+F73v/RLPiB/4Lbb/AOSK9WooA8p/4Xve/wDRLPiB/wCC22/+SKa/x2vSv/JLfiAvI5/s23P/ALcV6xTJPuj6+39aAPnjw38WfFFl8SPF+q6h8OviFNpF7b2MGm2fkQOkHlLKZSIvtOxGZ5eWHzMAgbhFA7MfHe9/6JZ8QP8AwXW3/wAkVT/4W1ql98f9A8KWFvAfC93p2qPLetnzJ7u0ktEYJ22J9oZCe7qw/gr1+M5+uMmjfUJfFY8t/wCF73v/AESz4gf+C22/+SKP+F73v/RLPiB/4Lbb/wCSK9WooA8p/wCF73v/AESz4gf+C22/+SKP+F73v/RLPiB/4Lbb/wCSK9WooA8p/wCF73v/AESz4gf+C22/+SKZJ8drxl5+FnxAA6n/AIl9sB/6UV6zUc5by/lG4+lAHzy3xW8UN8XLfWj8O/iJ/wAI5Foc1p9hWCLy/tT3Eb+Y0X2jazBI8Bm5UMQvDtXZj47Xv/RLPiB/4Lrb/wCSK53xh8W9d0n49aF4TN0vhbw5cGKKC81Pw7Ncxa3cMC7W1vei4SOCQKoAEkbliGx0r3KCTc2M5OM/r1+h/pSjrG4bHmH/AAve9/6JZ8QP/Bbbf/JFH/C973/olnxA/wDBbbf/ACRXq1FMDyn/AIXve/8ARLPiB/4Lbb/5Io/4Xve/9Es+IH/gttv/AJIr1aigDyn/AIXve/8ARLPiB/4Lbb/5Ipknx2vGXH/CrfH49zptt/8AJH+c16zTJPuj60gPnXxJ8VPE+rfErwdqcHw7+IkfhvTbXUJL2zjgjhM104t0tmdFulEiKhu/lk3Lkq2NyqR2Ufx0vVbn4W/EA8f9A+2OeTz/AMfH8+ax/HH7QFlo3xUn8Ifb4dD0zSra0n1vXri1lmS3kunZba2VlUxws+3cZJmwAUAU7gR7dEwJ4OeOpprVXDY8u/4Xve/9Es+IH/gttv8A5Ipknx6ljXfdfDL4gW1qvzSzf2Ok+xB1PlwyvI+B/CiMx6AE8H1migCKPO8g5Pvj9P8APtUtFFABRRRQAVw/xc8BQ+PdA05Dcmxv9H1O21mwuvL8wR3EDFgGTI3Ky70YZHyueaKKAD4T+Ao/BOl6xdNdfbdS8RapNrl/cLF5SNNKFUKqbmwqRxxoMkkhMk13FFFABRRRQAUUUUAFQXiyPAyQusUrAhHZdwVsHBIyMjPbI+tFFJ7DRxPwT+Hc/wAKfhloPhS41OHV302AxLeQWhtVdSxYfuzI+CNx/irul+9RRQ+hC6j6KKKZQUUUUAFZ+vQ6hdaTdQ6Vd29hqckbLbXV1btcRRSEHazxK6FwD/CHXPqKKKTA4P4R+CfGXgprqDxP4p0XxDDKvmKdJ0GXTpJJyQZZ53ku7gyO2VAC7FUDAGMBfS/4qKKJAFN9aKKA6CntQtFFMOg6orlZXt5FhdElKkI0iF1DY4JAIyM9sjPqKKKAPM/ht4PvNR8TR+PfEF5YXviFtLbRlbTLF7SIQife5YPNKzEuikZb5Rkc5Jr1GiigAooooAKKKKACmSjcuPeiikxrc8Q0/wDZV8G6L8XPDfjLRYJNLfRLe9hFkLi4lWWSYwsJAzS/IECONgGD5hPYV7ch+cr1/wAiiimtiZbklFFFAwooooAKiuDiP33KB+JAzRRQB5nrXhnVvGHjSay1zUtNufDmm39rq1nZW+nSRXKvCUkiV5zOwbbKA+RGp4A9c+mRt8x47n9DRRQBLRRRQAUUUUAFMlXcoHvRRSYHifj34D23i7XPGOzU1s9M8fW1vp2tWrWxkf8A0cOPNhkEi7GaLKZKnBCtztwfaLdSrbSckLjgYH4DtRRSjsBPRRRVAFFFFABRRRQB/9k=;" vertex="1" parent="1">
          <mxGeometry x="240" y="240" width="435.5" height="281.05" as="geometry" />
        </mxCell>
      </root>
    </mxGraphModel>
  </diagram>
</mxfile>
